<?xml version="1.0" encoding="UTF-8"?>
<!DOCTYPE svg PUBLIC "-//W3C//DTD SVG 1.1//EN" "http://www.w3.org/Graphics/SVG/1.1/DTD/svg11.dtd">
<!-- Creator: CorelDRAW 2020 (64 Bit) -->
<svg xmlns="http://www.w3.org/2000/svg" xml:space="preserve" width="53.8705mm" height="8.5478mm" version="1.1" style="shape-rendering:geometricPrecision; text-rendering:geometricPrecision; image-rendering:optimizeQuality; fill-rule:evenodd; clip-rule:evenodd"
viewBox="0 0 1185.27 188.07"
 xmlns:xlink="http://www.w3.org/1999/xlink"
 xmlns:xodm="http://www.corel.com/coreldraw/odm/2003">
 <defs>
  <style type="text/css">
   <![CDATA[
    .fil0 {fill:black}
   ]]>
  </style>
 </defs>
 <g id="Camada_x0020_1">
  <metadata id="CorelCorpID_0Corel-Layer"/>
  <path class="fil0" d="M330.26 26.59l0 49.14 18.25 0 16.63 0 16.63 0 8.56 0c5.35,0 9.7,-4.36 9.7,-9.69l0 -13.51 0 -16.25c0,-5.34 -4.35,-9.69 -9.7,-9.69l-8.56 0 -16.63 0 -16.63 0 -18.25 0zm794.73 161.48c41.9,0 60.27,-16.54 60.27,-47.5l0 -90.79c0,-31.62 -16.65,-49.78 -60.27,-49.78 -43.4,0 -59.77,18.44 -59.77,49.78l0 90.79c0,30.69 18.08,47.5 59.77,47.5zm0.25 -81.89c-6.7,0 -12.15,-5.44 -12.15,-12.15 0,-6.7 5.44,-12.15 12.15,-12.15 6.71,0 12.15,5.44 12.15,12.15 0,6.71 -5.44,12.15 -12.15,12.15zm0 60.69c-23.01,0 -33.04,-13.47 -33.04,-28.34l0 -88.99c0,-14.87 10.03,-28.34 33.04,-28.34 23.3,0 33.04,13.23 33.04,28.34l0 88.99c0,14.86 -10.03,28.34 -33.04,28.34zm-232.72 -166.1l0.05 0 0.06 0 20.81 0 0.06 0 0.06 0c0.34,0 0.62,0.08 0.87,0.21 0.77,0.35 1.32,1.08 1.41,1.94l0.12 0.27 40.76 91.16 0 -91.1c0,-1.33 1.09,-2.42 2.42,-2.42l20.92 0c1.33,0 2.42,1.1 2.42,2.42l0 91.1 40.76 -91.16 0.1 -0.24c0.09,-0.9 0.67,-1.65 1.47,-1.99l0.02 -0.01 0.04 -0.02c0.23,-0.11 0.48,-0.17 0.78,-0.17l0.05 0 0.06 0 20.82 0 0.06 0 0.04 0c0.53,0 1.03,0.18 1.43,0.47l0.02 0.01 0 0c0.64,0.41 1.09,1.03 0.96,1.68l0.01 0.25 0 181.62c0,1.33 -1.09,2.42 -2.42,2.42l-20.92 0c-1.33,0 -2.42,-1.09 -2.42,-2.42l0 -124.21 -40.21 89.93c-0.54,1.21 -1.08,2.42 -2.41,2.42l-1.25 0 -0.06 0 -19.61 0 -0.06 0 -1.25 0c-1.33,0 -1.87,-1.21 -2.41,-2.42l-40.22 -89.95 0 124.23c0,1.33 -1.09,2.42 -2.42,2.42l-20.92 0c-1.33,0 -2.42,-1.09 -2.42,-2.42l0 -181.62 0.02 -0.28c-0.11,-0.62 0.31,-1.21 0.91,-1.62 0.41,-0.32 0.93,-0.52 1.49,-0.52zm-21.96 47.76l0 -4.23c0,-35.56 -26.01,-44.3 -56.9,-44.3 -29.21,0 -57.18,7 -57.18,42l0 12.13c0,28.43 16.06,38.93 41.26,46.24l28.63 8.31c0.21,0.06 0.42,0.13 0.63,0.22 12.32,5.24 20.19,10.96 20.56,25.37l0 12.67c0,18.59 -17.86,21 -32.46,21 -16.67,0 -34.18,-4.77 -34.18,-24.72l0 -6.52 0 -2.04 0 -1.81c0,-1.33 -1.09,-2.42 -2.42,-2.42l-21.03 0c-1.33,0 -2.42,1.09 -2.42,2.42l0 1.81 0 2.04 0 5.95c0,37.3 28.15,45.44 60.05,45.44 30.99,0 58.9,-7.54 58.9,-44.01l0 -10.89c0,-26.42 -13.5,-38.26 -37.78,-45.07l-30.88 -8.67c-12.96,-4.89 -22.43,-10.62 -22.43,-25.88l0 -13.55c0,-17.57 15.92,-19.86 29.89,-19.86 15.89,0 31.89,4.38 31.89,23.3l0 5.09 0 1.93 0 1.92c0,1.33 1.09,2.42 2.42,2.42l21.03 0c1.34,0 2.42,-1.09 2.42,-2.42l0 -3.85 -0 0zm-154.95 -47.73l20.92 0c1.33,0 2.42,1.09 2.42,2.42l0 181.62c0,1.33 -1.09,2.42 -2.42,2.42l-20.92 0c-1.33,0 -2.42,-1.09 -2.42,-2.42l0 -181.62c0,-1.33 1.08,-2.42 2.42,-2.42zm-112.69 0l20.93 0c1.33,0 2.42,1.09 2.42,2.42l0 158.28 72.63 0c1.33,0 2.42,1.08 2.42,2.42l0 20.93c0,1.33 -1.1,2.42 -2.42,2.42l-75.04 0 -20.93 0 -0.13 -0 -0.12 -0.01 -0.12 -0.02 -0.11 -0.02 -0 0 -0.11 -0.02 -0.12 -0.03 -0.11 -0.04 -0.01 0 -0.11 -0.04 -0.1 -0.05 -0 0 -0.1 -0.05 -0.01 0 -0.29 -0.19 0 -0.01 -0.09 -0.07 -0.08 -0.07 -0.01 0 -0.08 -0.08 -0.01 0 -0.07 -0.09 -0 0 -0.07 -0.09 0 -0 -0.07 -0.09 0 -0.01 -0.07 -0.09 -0.06 -0.1 -0.06 -0.1 -0.01 0 -0.05 -0.1 -0.05 -0.11 -0 0 -0.04 -0.11 -0.04 -0.11 0 -0 -0.03 -0.11 -0.02 -0.12 -0.02 -0.12 -0.02 -0.12 -0.01 -0.12 -0 -0.13 0 -20.93 0 -160.69c0,-1.33 1.09,-2.42 2.42,-2.42zm-66.18 1.81l0 0.01 0.02 0.11 48.43 182.14c0.32,1.21 -1.06,2.38 -2.36,2.42l-0.06 0 -1.77 0 -0.06 0 -8.47 0 -11.7 0c-1.29,0 -2.09,-1.14 -2.42,-2.42l-41.94 -158.29 -3.41 0 -13.73 51.83 28.3 106.46c0.33,1.22 -1.06,2.38 -2.35,2.42l-0.06 0 -1.77 0 -0.06 0 -8.47 0 -11.7 0c-1.3,0 -2.09,-1.14 -2.42,-2.42l-14.84 -55.99 -14.83 55.99c-0.33,1.28 -1.11,2.42 -2.42,2.42l-11.7 0 -8.47 0 -0.06 0 -1.77 0 -0.06 0c-1.3,-0.04 -2.68,-1.19 -2.36,-2.42l48.46 -182.26 0 -0c0.28,-1.04 1.22,-1.81 2.34,-1.81l18.44 0 2.49 0 18.44 0c1.12,0 2.07,0.77 2.34,1.81zm-274.2 -1.81l20.93 0c1.33,0 2.42,1.09 2.42,2.42l0 181.62c0,1.33 -1.09,2.42 -2.42,2.42l-20.93 0c-1.33,0 -2.42,-1.09 -2.42,-2.42l0 -181.62c0,-1.33 1.09,-2.42 2.42,-2.42zm-199.24 25.8l0 49.13 14.05 0c1.33,0 2.42,1.09 2.42,2.41l0 20.93c0,1.31 -1.1,2.42 -2.42,2.42l-14.05 0 0 83.39c0,1.33 -1.09,2.42 -2.42,2.42l-20.93 0c-1.33,0 -2.42,-1.08 -2.42,-2.42l0 -83.39 -14.05 0c-1.32,0 -2.42,-1.08 -2.42,-2.42l0 -20.93c0,-1.33 1.09,-2.41 2.42,-2.41l14.05 0 0 -49.13 -35.13 0c-1.32,0 -2.42,-1.08 -2.42,-2.42l0 -20.93c0,-1.33 1.09,-2.42 2.42,-2.42l96.03 0c1.33,0 2.42,1.08 2.42,2.42l0 20.93c0,1.33 -1.09,2.42 -2.42,2.42l-35.13 0zm121.5 49.14l11.93 0 8.56 0c5.35,0 9.7,-4.36 9.7,-9.69l0 -29.76c0,-5.34 -4.35,-9.69 -9.7,-9.69l-8.56 0 -37.41 0 25.48 49.15zm13.35 25.75l43.24 83.39c0.59,1.14 -1.06,2.38 -2.36,2.42l-0.06 0 -1.77 0 -0.06 0 -8.05 0 -11.7 0c-1.31,0 -1.81,-1.24 -2.42,-2.42l-43.79 -83.39 -25.97 0 0 83.39c0,1.33 -1.09,2.42 -2.42,2.42l-20.93 0c-1.32,0 -2.42,-1.08 -2.42,-2.42l0 -85.82 0 -19.42 0 -1.5c0,-1.33 1.09,-2.42 2.42,-2.42l34.41 0.01 1.39 0 -38.2 -72.77c0.15,-1.19 1.16,-2.13 2.4,-2.13l88.28 0c16.83,0 30.59,13.77 30.59,30.61l0 39.43c0,16.84 -13.76,30.61 -30.59,30.61l-12 0zm108.75 -100.68l20.92 0 0.4 0.04 36.9 0 30.05 0c16.83,0 30.59,13.77 30.59,30.61l0 21.08 0 18.34c0,4.11 -0.83,8.04 -2.31,11.63 6.97,5.63 11.46,14.23 11.46,23.84l0 18.34 0 31.94c0,16.84 -13.76,30.61 -30.59,30.61l-39.2 0 -36.76 0c-0.17,0.04 -0.35,0.06 -0.54,0.06l-10.46 0 0 -0.03 -10.46 0c-1.32,0 -2.42,-1.09 -2.42,-2.42l0 -181.62c0,-1.33 1.09,-2.42 2.42,-2.42zm102.27 123.87l0 27.11c0,5.32 -4.36,9.69 -9.7,9.69l-8.57 0 -25.78 0 -16.63 0 -18.25 0 0 -60 18.25 0 16.63 0 25.78 0 4.27 0 4.29 0c5.34,0 9.7,4.36 9.7,9.69l0 13.51z"/>
 </g>
</svg>
