<svg width="237" height="48" viewBox="0 0 237 48" fill="none" xmlns="http://www.w3.org/2000/svg">
<path d="M27.9749 16.32C27.4949 16.8 27.0149 17.28 26.5349 17.28C25.8583 17.3513 25.1783 17.1813 24.6149 16.8C24.1349 16.32 23.6549 16.32 23.1749 15.84C22.6949 15.36 22.2149 14.88 22.2149 14.4C21.7349 14.4 21.7349 14.4 21.2549 13.92V13.44H20.7749C20.2949 13.44 20.2949 12.96 20.2949 12.48H19.3349V12.002C19.3363 11.9386 19.3248 11.8756 19.3011 11.8167C19.2775 11.7579 19.2422 11.7044 19.1973 11.6596C19.1525 11.6147 19.099 11.5794 19.0402 11.5558C18.9813 11.5321 18.9183 11.5206 18.8549 11.522L18.3749 11.042C17.8949 10.562 18.3749 10.562 18.3749 10.562H17.8949V10.082C17.8963 10.0186 17.8848 9.95556 17.8611 9.89671C17.8375 9.83786 17.8022 9.7844 17.7573 9.73955C17.7125 9.6947 17.659 9.6594 17.6002 9.63576C17.5413 9.61212 17.4783 9.60064 17.4149 9.602H16.9349C16.4549 9.602 16.4549 9.122 16.4549 8.642H15.4949V15.362C15.7019 16.1519 15.8622 16.9533 15.9749 17.762C15.929 18.9019 16.0917 20.0406 16.4549 21.122V26.882C16.5309 27.8667 16.3661 28.8551 15.9749 29.762C15.5836 30.6689 15.4189 31.6573 15.4949 32.642V36.002H15.0149V38.882C15.2758 39.1407 15.4444 39.478 15.4949 39.842C15.4949 40.322 15.4949 40.322 15.0149 40.802C14.5349 41.282 15.0149 41.282 14.5349 41.762C14.0549 42.242 14.5349 42.242 15.0149 42.722V44.162C15.0163 44.2254 15.0048 44.2884 14.9811 44.3473C14.9575 44.4061 14.9222 44.4596 14.8773 44.5044C14.8325 44.5493 14.779 44.5846 14.7202 44.6082C14.6613 44.6319 14.5983 44.6434 14.5349 44.642H15.0149C14.5349 45.122 14.0549 45.602 13.5749 45.602H12.1349C11.6549 45.122 11.1749 44.642 11.1749 44.162C11.1749 43.682 10.6949 43.202 10.2149 42.722V42.242C10.2135 42.1786 10.225 42.1156 10.2486 42.0567C10.2723 41.9979 10.3076 41.9444 10.3524 41.8996C10.3973 41.8547 10.4507 41.8194 10.5096 41.7958C10.5685 41.7721 10.6315 41.7606 10.6949 41.762C11.1749 41.762 10.6949 41.762 11.1749 41.282V33.602C11.0961 31.8284 11.2576 30.0523 11.6549 28.322C12.0522 26.5917 12.2137 24.8156 12.1349 23.042C12.1349 22.082 11.6549 21.602 11.6549 20.642C11.7262 19.9654 11.5562 19.2854 11.1749 18.722C11.1102 18.6599 11.0586 18.5854 11.0235 18.5029C10.9883 18.4204 10.9701 18.3317 10.9701 18.242C10.9701 18.1523 10.9883 18.0636 11.0235 17.9811C11.0586 17.8986 11.1102 17.8241 11.1749 17.762V14.882C11.1763 14.8186 11.1648 14.7556 11.1411 14.6967C11.1175 14.6379 11.0822 14.5844 11.0373 14.5396C10.9925 14.4947 10.939 14.4594 10.8802 14.4358C10.8213 14.4121 10.7583 14.4006 10.6949 14.402V9.602C10.6949 9.122 10.6949 8.642 11.1749 8.642C11.1749 8.162 11.1749 8.162 10.6949 8.162C10.2149 8.162 9.73489 8.642 9.25489 9.122V10.082H8.29489C8.23148 10.0806 8.16845 10.0921 8.1096 10.1158C8.05075 10.1394 7.99729 10.1747 7.95244 10.2196C7.90759 10.2644 7.87229 10.3179 7.84865 10.3767C7.82501 10.4356 7.81352 10.4986 7.81489 10.562V11.042H7.33489L6.37489 12.002L5.89489 12.482C5.89352 12.5454 5.90501 12.6084 5.92865 12.6673C5.95229 12.7261 5.98759 12.7796 6.03244 12.8244C6.07729 12.8693 6.13075 12.9046 6.1896 12.9282C6.24845 12.9519 6.31148 12.9634 6.37489 12.962C5.89489 12.962 5.89489 12.962 5.41489 13.442L4.45489 14.402C3.97489 14.882 3.97489 15.362 3.49489 15.842C3.01489 15.842 2.05489 16.322 1.57489 15.842C1.09489 15.842 0.614888 15.362 0.134888 15.362C-0.345112 15.362 0.614888 14.402 0.614888 13.922C0.614888 13.442 1.09489 12.962 1.57489 12.482V11.042H3.49489V9.122H5.41489V8.162L5.89489 7.682V7.202H6.37489V6.722C6.37489 6.242 6.85489 6.242 7.33489 6.242C7.33489 5.762 7.33489 5.762 7.81489 5.282H8.29489V4.322H9.25489L10.2149 3.362V2.402L10.6949 1.922C10.7583 1.92336 10.8213 1.91188 10.8802 1.88824C10.939 1.8646 10.9925 1.8293 11.0373 1.78445C11.0822 1.7396 11.1175 1.68614 11.1411 1.62729C11.1648 1.56844 11.1763 1.50541 11.1749 1.442C11.1749 0.962001 11.6549 1.442 11.6549 1.442C12.0981 1.20564 12.5926 1.082 13.0949 1.082C13.5972 1.082 14.0917 1.20564 14.5349 1.442C15.4949 1.922 16.4549 1.922 17.4149 2.402L18.8549 3.842L20.2949 5.282C20.7749 5.762 21.2549 6.242 21.2549 6.722C21.2549 7.202 21.7349 7.682 22.2149 8.162C23.0724 8.53953 23.7574 9.22452 24.1349 10.082C24.494 10.8043 24.982 11.455 25.5749 12.002C25.5749 12.482 25.5749 12.482 26.0549 12.962H27.9749L28.4549 13.442C28.9349 13.922 28.4549 13.922 28.4549 13.922C28.9349 14.402 29.4149 14.882 29.4149 15.362C28.4549 15.36 28.4549 15.84 27.9749 16.32Z" fill="black"/>
<path d="M48.6158 6.72V9.12C48.5978 10.01 48.2566 10.8631 47.6558 11.52V13.44H46.6958V15.36H45.7358V16.32C45.7358 16.8 45.7358 17.28 45.2558 17.28C45.0667 17.4622 44.8392 17.5999 44.5901 17.6829C44.341 17.766 44.0764 17.7923 43.8158 17.76C43.3358 17.76 42.8558 18.24 42.3758 18.24C42.0118 18.2904 41.6745 18.4591 41.4158 18.72C41.4144 18.7834 41.4259 18.8464 41.4495 18.9053C41.4732 18.9641 41.5085 19.0176 41.5533 19.0625C41.5982 19.1073 41.6516 19.1426 41.7105 19.1662C41.7693 19.1899 41.8324 19.2014 41.8958 19.2C41.9592 19.1986 42.0222 19.2101 42.0811 19.2338C42.1399 19.2574 42.1934 19.2927 42.2382 19.3376C42.2831 19.3824 42.3184 19.4359 42.342 19.4947C42.3657 19.5536 42.3772 19.6166 42.3758 19.68C42.6345 19.9409 42.9718 20.1096 43.3358 20.16H44.2958C44.8887 20.707 45.3767 21.3577 45.7358 22.08C46.1234 22.8171 46.2901 23.6505 46.2158 24.48V24L46.6958 24.48C46.9567 24.7387 47.1253 25.076 47.1758 25.44V26.4L48.1358 29.28C48.6158 29.76 49.0958 29.76 49.0958 30.24V33.12L50.0558 35.52V37.44C50.0628 37.8113 50.1526 38.1764 50.3186 38.5086C50.4847 38.8407 50.7229 39.1316 51.0158 39.36V43.68C51.0172 43.7434 51.0057 43.8064 50.982 43.8653C50.9584 43.9241 50.9231 43.9776 50.8782 44.0224C50.8334 44.0673 50.7799 44.1026 50.7211 44.1262C50.6622 44.1499 50.5992 44.1614 50.5358 44.16C50.0558 44.64 49.5758 45.12 49.0958 44.64C48.6158 44.64 48.1358 44.16 47.6558 43.2C47.1758 42.24 47.1758 41.76 46.6958 40.8C46.2158 39.84 46.2158 38.88 45.7358 37.92C45.7358 36.96 45.2558 36 45.2558 35.04V32.16C45.2558 31.68 45.2558 31.68 44.7758 31.2C44.7758 30.72 44.7758 30.72 44.2958 30.24V28.32C44.0029 28.0916 43.7647 27.8007 43.5986 27.4686C43.4326 27.1364 43.3428 26.7713 43.3358 26.4C43.3358 25.44 42.8558 24.96 42.8558 24.48V24C42.8571 23.9366 42.8457 23.8736 42.822 23.8147C42.7984 23.7559 42.7631 23.7024 42.7182 23.6576C42.6734 23.6127 42.6199 23.5774 42.5611 23.5538C42.5022 23.5301 42.4392 23.5186 42.3758 23.52L41.8958 23.04V22.08L40.9358 21.12V20.64H39.9758V20.16H36.6158C36.1358 20.16 35.6558 20.16 35.6558 20.64V43.68C35.6558 44.16 35.6558 44.64 35.1758 44.64C34.6958 44.64 34.2158 45.12 33.7358 45.12C33.2558 45.12 32.7758 45.12 32.7758 44.64C32.2958 44.64 32.2958 44.16 32.2958 43.68C32.2453 43.316 32.0767 42.9787 31.8158 42.72C31.8158 42.24 31.3358 41.76 31.3358 41.28V40.8C31.3344 40.7366 31.3459 40.6736 31.3695 40.6147C31.3932 40.5559 31.4285 40.5024 31.4733 40.4576C31.5182 40.4127 31.5716 40.3774 31.6305 40.3538C31.6893 40.3301 31.7524 40.3186 31.8158 40.32C32.2958 40.32 31.8158 40.32 32.2958 39.84C32.7758 39.36 32.2958 39.36 32.2958 39.36V37.92C32.2958 37.44 31.8158 36.96 31.3358 36.48C31.2225 35.3377 31.3872 34.1849 31.8158 33.12C32.207 32.2131 32.3718 31.2247 32.2958 30.24L31.3358 25.92C31.8158 25.92 31.8158 25.44 32.2958 24.96V22.08C32.2635 21.8194 32.2898 21.5548 32.3729 21.3057C32.4559 21.0566 32.5936 20.8291 32.7758 20.64C33.0367 20.3813 33.2053 20.044 33.2558 19.68V12C33.2235 11.7394 33.2498 11.4748 33.3329 11.2257C33.4159 10.9766 33.5536 10.7491 33.7358 10.56V7.2C33.4018 6.79664 33.2306 6.28306 33.2558 5.76V3.84C33.2558 3.36 33.7358 2.88 33.7358 2.4C33.8196 2.28823 33.9283 2.1975 34.0533 2.13502C34.1783 2.07253 34.3161 2.04 34.4558 2.04C34.5955 2.04 34.7333 2.07253 34.8583 2.13502C34.9832 2.1975 35.092 2.28823 35.1758 2.4H35.6558C35.7192 2.40137 35.7822 2.38988 35.8411 2.36624C35.8999 2.3426 35.9534 2.3073 35.9982 2.26245C36.0431 2.2176 36.0784 2.16414 36.102 2.10529C36.1257 2.04644 36.1371 1.98341 36.1358 1.92C36.1992 1.92137 36.2622 1.90988 36.3211 1.88624C36.3799 1.8626 36.4334 1.8273 36.4782 1.78245C36.5231 1.7376 36.5584 1.68414 36.582 1.62529C36.6057 1.56644 36.6171 1.50341 36.6158 1.44H41.8958L42.8558 2.4H46.6958V3.36L47.6558 4.32C47.7192 4.31864 47.7822 4.33012 47.8411 4.35376C47.8999 4.3774 47.9534 4.41271 47.9982 4.45755C48.0431 4.5024 48.0784 4.55586 48.102 4.61471C48.1257 4.67357 48.1371 4.73659 48.1358 4.8L48.6158 5.28C48.6144 5.34341 48.6259 5.40644 48.6495 5.46529C48.6732 5.52414 48.7085 5.5776 48.7533 5.62245C48.7982 5.6673 48.8516 5.7026 48.9105 5.72624C48.9693 5.74988 49.0324 5.76137 49.0958 5.76C48.8218 6.00909 48.6507 6.3514 48.6158 6.72V6.72ZM44.2958 6.72H42.3758V5.76H39.4958C39.0158 5.76 39.0158 5.76 39.0158 6.24H36.6158C36.6158 6.72 36.1358 7.2 36.1358 7.68V10.08C36.1358 10.56 36.1358 10.56 35.6558 11.04V12.96C35.6348 13.6321 35.8009 14.2969 36.1358 14.88C36.1035 15.1406 36.1298 15.4052 36.2129 15.6543C36.2959 15.9034 36.4336 16.1309 36.6158 16.32V21.12L37.5758 20.16L38.5358 19.2L39.9758 17.76L41.4158 16.32C41.6764 16.3523 41.941 16.326 42.1901 16.2429C42.4392 16.1599 42.6667 16.0222 42.8558 15.84L43.3358 15.36V14.4H44.2958V13.44L45.2558 12.48C45.1911 12.4179 45.1395 12.3434 45.1044 12.2609C45.0692 12.1784 45.051 12.0897 45.051 12C45.051 11.9103 45.0692 11.8216 45.1044 11.7391C45.1395 11.6566 45.1911 11.5821 45.2558 11.52C45.7358 11.04 45.2558 10.56 45.7358 10.08V8.64C45.7358 8.16 44.7758 6.72 44.2958 6.72V6.72Z" fill="black"/>
<path d="M58.693 2.40001V12H57.733V13.92C57.733 14.88 57.733 15.36 58.213 15.84C58.3952 16.0292 58.5328 16.2566 58.6158 16.5057C58.6989 16.7549 58.7252 17.0194 58.693 17.28V19.2C58.7252 19.4606 58.6989 19.7252 58.6158 19.9743C58.5328 20.2234 58.3952 20.4509 58.213 20.64C57.733 21.12 58.213 21.6 57.733 21.6V22.56C57.733 23.52 57.733 24 58.213 24.48C58.3952 24.6692 58.5328 24.8966 58.6158 25.1457C58.6989 25.3949 58.7252 25.6594 58.693 25.92V33.12C58.693 33.6 58.213 34.08 58.213 34.56V42.72C58.1626 43.084 57.994 43.4213 57.733 43.68C57.733 44.16 57.253 44.16 56.773 44.64C56.5838 44.8222 56.3564 44.9598 56.1073 45.0428C55.8582 45.1259 55.5936 45.1522 55.333 45.12C54.853 45.12 54.853 45.12 54.853 44.64C54.853 44.16 54.373 43.68 54.373 43.2V35.52C54.4052 35.2594 54.3789 34.9949 54.2958 34.7457C54.2128 34.4966 54.0752 34.2692 53.893 34.08C53.9254 33.8194 53.8991 33.5548 53.816 33.3057C53.733 33.0565 53.5953 32.8291 53.413 32.64V31.68C53.4764 31.6814 53.5394 31.6699 53.5983 31.6463C53.6571 31.6226 53.7106 31.5873 53.7555 31.5425C53.8003 31.4976 53.8356 31.4442 53.8592 31.3853C53.8829 31.3265 53.8944 31.2634 53.893 31.2V28.32C53.8944 28.2566 53.8829 28.1936 53.8592 28.1347C53.8356 28.0759 53.8003 28.0224 53.7555 27.9776C53.7106 27.9327 53.6571 27.8974 53.5983 27.8738C53.5394 27.8501 53.4764 27.8386 53.413 27.84V16.32C53.3483 16.2579 53.2968 16.1834 53.2616 16.1009C53.2264 16.0184 53.2083 15.9297 53.2083 15.84C53.2083 15.7503 53.2264 15.6616 53.2616 15.5791C53.2968 15.4966 53.3483 15.4221 53.413 15.36C53.3806 15.0994 53.4069 14.8348 53.49 14.5857C53.573 14.3365 53.7107 14.1091 53.893 13.92C53.893 13.44 54.373 12.96 54.373 12.48C54.373 12 54.853 12 54.853 11.52V0.480014C54.853 1.36197e-05 55.333 1.36578e-05 55.813 1.36578e-05C56.0736 -0.0322796 56.3382 -0.00594109 56.5873 0.0771049C56.8364 0.160151 57.0639 0.297806 57.253 0.480014C57.73 0.960014 58.213 2.40001 58.693 2.40001Z" fill="black"/>
<path d="M62.5318 1.92C62.7905 2.18097 63.1278 2.34963 63.4918 2.4C63.9718 2.4 63.9718 2.4 64.4518 1.92C64.9318 1.44 64.9318 1.92 65.4118 1.44C65.8918 0.960003 65.8918 1.44 66.3718 1.92C66.6324 1.88771 66.897 1.91405 67.1461 1.99709C67.3952 2.08014 67.6227 2.2178 67.8118 2.4C68.001 2.58215 68.2284 2.71977 68.4775 2.80281C68.7267 2.88585 68.9912 2.91222 69.2518 2.88C69.5105 3.14097 69.8478 3.30963 70.2118 3.36H72.6118C72.8724 3.32771 73.137 3.35405 73.3861 3.43709C73.6353 3.52014 73.8627 3.6578 74.0518 3.84C74.0196 4.10062 74.046 4.36515 74.129 4.61427C74.212 4.8634 74.3497 5.09084 74.5318 5.28C74.7809 5.55394 75.1232 5.7251 75.4918 5.76C75.5552 5.75864 75.6182 5.77012 75.6771 5.79376C75.736 5.8174 75.7894 5.85271 75.8343 5.89755C75.8791 5.9424 75.9144 5.99586 75.938 6.05471C75.9617 6.11357 75.9732 6.17659 75.9718 6.24L76.4518 6.72C76.4504 6.78341 76.4619 6.84644 76.4856 6.90529C76.5092 6.96415 76.5445 7.01761 76.5894 7.06245C76.6342 7.1073 76.6877 7.14261 76.7465 7.16624C76.8054 7.18988 76.8684 7.20137 76.9318 7.2L77.4118 7.68C77.6727 7.93873 77.8414 8.27604 77.8918 8.64C77.8918 9.12 78.3718 9.12 78.3718 9.6C78.3718 10.08 78.3718 10.08 78.8518 10.56C78.8518 11.04 79.3318 11.04 79.3318 11.52V13.443L79.8118 13.923V15.843C79.8132 15.9064 79.8017 15.9694 79.7781 16.0283C79.7544 16.0871 79.7191 16.1406 79.6742 16.1855C79.6294 16.2303 79.576 16.2656 79.5171 16.2892C79.4582 16.3129 79.3952 16.3244 79.3318 16.323L78.8518 16.803L77.8918 17.763V18.723C77.6309 18.9817 77.4623 19.319 77.4118 19.683C77.4118 20.163 76.9318 20.163 76.9318 20.643C76.9318 21.123 76.9318 21.123 76.4518 21.123H75.9718C75.4918 21.603 75.4918 22.083 75.0118 22.083C74.5318 22.083 74.5318 22.563 74.0518 22.563V23.043C74.0532 23.1064 74.0417 23.1694 74.018 23.2283C73.9944 23.2871 73.9591 23.3406 73.9143 23.3855C73.8694 23.4303 73.816 23.4656 73.7571 23.4892C73.6983 23.5129 73.6352 23.5244 73.5718 23.523C73.0918 23.523 73.5718 23.523 73.0918 24.003V24.483H74.0518C74.1152 24.4816 74.1782 24.4931 74.2371 24.5168C74.296 24.5404 74.3494 24.5757 74.3942 24.6206C74.4391 24.6654 74.4744 24.7189 74.4981 24.7777C74.5217 24.8366 74.5332 24.8996 74.5318 24.963C74.5304 25.0264 74.5419 25.0894 74.5656 25.1483C74.5892 25.2071 74.6245 25.2606 74.6693 25.3055C74.7142 25.3503 74.7677 25.3856 74.8265 25.4092C74.8854 25.4329 74.9484 25.4444 75.0118 25.443C75.0118 25.443 75.0118 24.963 75.4918 25.443L75.9718 25.923L76.9318 26.883C77.2958 26.9334 77.6331 27.1021 77.8918 27.363C77.9552 27.3616 78.0182 27.3731 78.0771 27.3968C78.1359 27.4204 78.1894 27.4557 78.2343 27.5006C78.2791 27.5454 78.3144 27.5989 78.3381 27.6577C78.3617 27.7166 78.3732 27.7796 78.3718 27.843V28.323L78.8518 28.803L79.3318 29.283L79.8118 29.763C80.0727 30.0217 80.2414 30.359 80.2918 30.723C80.324 30.9836 80.2976 31.2481 80.2146 31.4973C80.1316 31.7464 79.994 31.9738 79.8118 32.163C79.8442 32.4236 79.8179 32.6882 79.7348 32.9373C79.6518 33.1865 79.5141 33.4139 79.3318 33.603C78.8518 34.083 79.3318 34.563 79.8118 35.043C79.777 35.4116 79.6058 35.754 79.3318 36.003C79.3318 36.483 78.8518 36.483 78.8518 36.963L77.8918 37.923L76.9318 38.883V40.323C76.9318 40.803 76.4518 40.803 75.9718 40.803L74.5318 42.723C74.0518 42.723 74.0518 43.203 73.5718 43.203C73.0918 43.203 73.0918 43.683 72.6118 43.683C72.1318 43.683 72.1318 44.163 71.6518 44.163C71.6532 44.2264 71.6417 44.2894 71.618 44.3483C71.5944 44.4071 71.5591 44.4606 71.5143 44.5055C71.4694 44.5503 71.4159 44.5856 71.3571 44.6092C71.2982 44.6329 71.2352 44.6444 71.1718 44.643L70.6918 45.123C70.6284 45.1216 70.5654 45.1331 70.5065 45.1568C70.4477 45.1804 70.3942 45.2157 70.3494 45.2606C70.3045 45.3054 70.2692 45.3589 70.2456 45.4177C70.2219 45.4766 70.2104 45.5396 70.2118 45.603L69.7318 46.083H65.4088C64.9288 46.083 64.9288 46.083 64.4488 45.603V42.723C64.4474 42.6596 64.4589 42.5966 64.4826 42.5377C64.5062 42.4789 64.5415 42.4254 64.5864 42.3806C64.6312 42.3357 64.6847 42.3004 64.7435 42.2768C64.8024 42.2531 64.8654 42.2416 64.9288 42.243V35.043L65.8888 33.123C65.9212 32.8624 65.8949 32.5978 65.8118 32.3487C65.7288 32.0995 65.5911 31.8721 65.4088 31.683C65.2267 31.4938 65.089 31.2664 65.006 31.0173C64.923 30.7681 64.8966 30.5036 64.9288 30.243V25.923C64.9288 25.443 64.4488 24.963 64.4488 24.483V20.643C64.481 20.3824 64.4547 20.1179 64.3716 19.8687C64.2886 19.6196 64.151 19.3922 63.9688 19.203V9.12C63.9054 9.12137 63.8424 9.10988 63.7835 9.08624C63.7247 9.06261 63.6712 9.0273 63.6264 8.98245C63.5815 8.93761 63.5462 8.88415 63.5226 8.82529C63.4989 8.76644 63.4874 8.70341 63.4888 8.64V8.16C63.4888 7.68 63.4888 7.68 63.9688 7.2H63.4888V5.28C63.4902 5.21659 63.4787 5.15357 63.455 5.09471C63.4314 5.03586 63.3961 4.9824 63.3513 4.93755C63.3064 4.89271 63.2529 4.8574 63.1941 4.83376C63.1352 4.81012 63.0722 4.79864 63.0088 4.8C62.5288 4.8 63.0088 4.8 62.5288 4.32V1.92H62.5318ZM66.3718 6.24V7.2C66.2937 8.65659 66.4558 10.1161 66.8518 11.52C67.2715 13.2467 67.4333 15.026 67.3318 16.8L66.8518 17.28V17.76H67.3318V25.92C67.3952 25.9186 67.4582 25.9301 67.5171 25.9538C67.576 25.9774 67.6294 26.0127 67.6742 26.0576C67.7191 26.1024 67.7544 26.1559 67.7781 26.2147C67.8017 26.2736 67.8132 26.3366 67.8118 26.4V27.36C67.8104 27.4234 67.8219 27.4864 67.8456 27.5453C67.8692 27.6041 67.9045 27.6576 67.9494 27.7025C67.9942 27.7473 68.0477 27.7826 68.1065 27.8062C68.1654 27.8299 68.2284 27.8414 68.2918 27.84V30.72C68.2918 31.2 68.2918 31.2 68.7718 31.68C68.7718 31.68 68.2918 31.2 68.2918 31.68V32.16C68.2918 32.64 68.2918 32.64 68.7718 32.64C68.7928 33.3121 68.6266 33.9768 68.2918 34.56C67.9569 35.1431 67.7907 35.8079 67.8118 36.48V44.16C68.801 43.8009 69.6444 43.1262 70.2118 42.24C71.1718 41.28 72.1318 40.8 72.6118 39.84L73.5718 38.88L74.0518 38.4C74.0504 38.3366 74.0619 38.2736 74.0856 38.2147C74.1092 38.1559 74.1445 38.1024 74.1894 38.0576C74.2342 38.0127 74.2877 37.9774 74.3465 37.9538C74.4054 37.9301 74.4684 37.9186 74.5318 37.92V37.443C75.0118 37.443 75.0118 37.443 75.4918 36.963V32.643C75.4932 32.5796 75.4817 32.5166 75.458 32.4577C75.4344 32.3989 75.3991 32.3454 75.3543 32.3006C75.3094 32.2557 75.2559 32.2204 75.1971 32.1968C75.1382 32.1731 75.0752 32.1616 75.0118 32.163C74.9484 32.1644 74.8854 32.1529 74.8265 32.1292C74.7677 32.1056 74.7142 32.0703 74.6693 32.0255C74.6245 31.9806 74.5892 31.9271 74.5656 31.8683C74.5419 31.8094 74.5304 31.7464 74.5318 31.683L74.0518 31.203L73.5718 30.723C73.0918 30.243 73.0918 29.763 72.6118 29.283C72.6118 28.803 72.1318 28.323 71.6518 27.843H70.2088C70.1454 27.8416 70.0824 27.8531 70.0235 27.8768C69.9647 27.9004 69.9112 27.9357 69.8664 27.9806C69.8215 28.0254 69.7862 28.0789 69.7626 28.1377C69.7389 28.1966 69.7274 28.2596 69.7288 28.323H68.2888C68.2254 28.3244 68.1624 28.3129 68.1035 28.2892C68.0447 28.2656 67.9912 28.2303 67.9464 28.1855C67.9015 28.1406 67.8662 28.0871 67.8426 28.0283C67.8189 27.9694 67.8074 27.9064 67.8088 27.843V26.883C67.8088 26.403 68.2888 26.403 68.7688 25.923L69.2488 25.443C69.3122 25.4444 69.3752 25.4329 69.4341 25.4092C69.4929 25.3856 69.5464 25.3503 69.5913 25.3055C69.6361 25.2606 69.6714 25.2071 69.695 25.1483C69.7187 25.0894 69.7302 25.0264 69.7288 24.963H70.2088V24.483C70.2074 24.4196 70.2189 24.3566 70.2426 24.2977C70.2662 24.2389 70.3015 24.1854 70.3464 24.1406C70.3912 24.0957 70.4447 24.0604 70.5035 24.0368C70.5624 24.0131 70.6254 24.0016 70.6888 24.003C71.1688 24.003 70.6888 24.003 71.1688 23.523V23.043L72.1288 21.603C72.1922 21.6044 72.2552 21.5929 72.3141 21.5692C72.3729 21.5456 72.4264 21.5103 72.4713 21.4655C72.5161 21.4206 72.5514 21.3671 72.5751 21.3083C72.5987 21.2494 72.6102 21.1864 72.6088 21.123L73.0888 20.643C73.3497 20.3843 73.5184 20.047 73.5688 19.683V18.723C73.5688 18.243 73.5688 17.763 74.0488 17.763C74.0488 17.283 74.5288 17.283 74.5288 16.803C74.5288 16.323 75.0088 16.323 75.0088 15.843C75.0088 15.363 75.0088 14.883 74.5288 14.883V13.923C74.5288 13.443 74.5288 12.963 74.0488 12.963L73.5688 12.483L73.0888 12.003L72.6088 11.523C72.6102 11.4596 72.5987 11.3966 72.5751 11.3377C72.5514 11.2789 72.5161 11.2254 72.4713 11.1806C72.4264 11.1357 72.3729 11.1004 72.3141 11.0768C72.2552 11.0531 72.1922 11.0416 72.1288 11.043C72.0654 11.0444 72.0024 11.0329 71.9435 11.0092C71.8847 10.9856 71.8312 10.9503 71.7864 10.9055C71.7415 10.8606 71.7062 10.8071 71.6826 10.7483C71.6589 10.6894 71.6474 10.6264 71.6488 10.563C71.1688 10.563 71.1688 10.083 70.6888 10.083C70.6902 10.0196 70.6787 9.95657 70.6551 9.89771C70.6314 9.83886 70.5961 9.7854 70.5513 9.74055C70.5064 9.69571 70.4529 9.6604 70.3941 9.63676C70.3352 9.61312 70.2722 9.60164 70.2088 9.603C70.1454 9.60437 70.0824 9.59288 70.0235 9.56924C69.9647 9.54561 69.9112 9.5103 69.8664 9.46545C69.8215 9.42061 69.7862 9.36715 69.7626 9.30829C69.7389 9.24944 69.7274 9.18641 69.7288 9.123C69.7288 8.643 69.2488 9.123 68.7688 9.123H67.8088C67.3288 9.123 67.3288 9.123 67.3288 8.643C67.3302 8.5796 67.3187 8.51657 67.2951 8.45771C67.2714 8.39886 67.2361 8.3454 67.1913 8.30055C67.1464 8.25571 67.0929 8.2204 67.0341 8.19676C66.9752 8.17312 66.9122 8.16164 66.8488 8.163H66.3688L66.3718 6.24Z" fill="black"/>
<path d="M106.21 2.4C105.73 2.88 105.73 2.88 105.73 3.36C105.73 3.84 105.73 3.84 106.21 4.32V9.6H105.25V12C105.25 12.48 105.73 12.96 105.73 13.92V18.72C105.73 19.68 105.73 20.16 106.21 20.64V36.48L105.73 36.96C105.731 37.0234 105.72 37.0864 105.696 37.1453C105.673 37.2041 105.637 37.2576 105.592 37.3024C105.548 37.3473 105.494 37.3826 105.435 37.4062C105.376 37.4299 105.313 37.4414 105.25 37.44V43.2C105.251 43.2634 105.24 43.3264 105.216 43.3853C105.193 43.4441 105.157 43.4976 105.112 43.5424C105.068 43.5873 105.014 43.6226 104.955 43.6462C104.896 43.6699 104.833 43.6814 104.77 43.68C104.771 43.7434 104.76 43.8064 104.736 43.8653C104.713 43.9241 104.677 43.9776 104.632 44.0224C104.588 44.0673 104.534 44.1026 104.475 44.1262C104.416 44.1499 104.353 44.1614 104.29 44.16V47.04H103.81C103.33 47.04 103.33 47.52 103.33 48C103.037 47.7716 102.799 47.4807 102.633 47.1486C102.467 46.8164 102.377 46.4513 102.37 46.08V44.16C102.37 43.68 102.85 42.72 102.85 42.24V37.92C102.776 37.0905 102.942 36.2572 103.33 35.52C103.512 35.3308 103.65 35.1034 103.733 34.8543C103.816 34.6051 103.842 34.3406 103.81 34.08V27.84H101.41C101.442 28.1006 101.416 28.3651 101.333 28.6143C101.25 28.8634 101.112 29.0908 100.93 29.28C100.45 29.76 99.9699 30.24 99.9699 30.72L99.4899 31.2V31.68H99.0099V32.64L98.0499 33.6V34.56H97.5699V35.04C97.5699 35.52 97.5699 35.52 97.0899 35.52V36.48H96.1299V37.44C96.1299 37.92 95.6499 38.4 95.6499 39.36C95.6499 40.32 95.1699 40.8 95.1699 41.76V44.16C95.1699 45.12 95.1699 45.6 95.6499 46.08H95.1699C95.1065 46.0786 95.0435 46.0901 94.9846 46.1138C94.9258 46.1374 94.8723 46.1727 94.8275 46.2176C94.7826 46.2624 94.7473 46.3159 94.7237 46.3747C94.7 46.4336 94.6886 46.4966 94.6899 46.56C94.6899 47.04 94.6899 46.56 94.2099 47.04H93.2499C93.1865 47.0414 93.1235 47.0299 93.0646 47.0062C93.0058 46.9826 92.9523 46.9473 92.9075 46.9025C92.8626 46.8576 92.8273 46.8041 92.8037 46.7453C92.78 46.6864 92.7686 46.6234 92.7699 46.56C92.7699 46.08 92.7699 46.56 92.2899 46.08H91.8099C91.549 45.8213 91.3804 45.484 91.3299 45.12C91.3299 44.64 91.3299 44.16 91.8099 44.16C91.8099 43.68 91.8099 43.68 92.2899 43.2C92.7699 42.72 91.8099 40.8 91.8099 40.8V39.36C91.8099 38.88 92.2899 38.4 92.2899 37.92C92.2899 37.44 92.7699 36.96 92.7699 36.48C92.8204 36.116 92.989 35.7787 93.2499 35.52V34.56C93.7299 34.08 94.2099 33.6 94.2099 33.12C94.2099 32.64 94.6899 32.16 95.1699 31.68V30.72C95.1699 30.24 95.1699 30.24 95.6499 29.76H96.1299V28.8C96.6099 28.8 96.6099 28.8 97.0899 28.32V27.84C97.0886 27.7766 97.1 27.7136 97.1237 27.6547C97.1473 27.5959 97.1826 27.5424 97.2275 27.4976C97.2723 27.4527 97.3258 27.4174 97.3846 27.3938C97.4435 27.3701 97.5065 27.3586 97.5699 27.36C97.8286 27.099 98.1659 26.9304 98.5299 26.88C99.0099 26.88 99.0099 26.4 99.4899 26.4H100.45V25.44L101.41 24.48V23.52L101.89 23.04L102.37 22.56C102.85 22.08 102.37 22.08 102.37 22.08V17.76C102.37 17.28 102.37 17.28 101.89 16.8V14.88C101.89 14.4 102.37 13.92 102.37 13.44V12.48C102.37 12 102.37 12 101.89 12C101.89 10.56 102.37 9.6 102.37 8.64V6.24C102.37 5.76 102.37 5.28 101.89 5.28H101.41V6.24H100.45L99.4899 7.2L98.5299 8.16H97.5699V9.12C97.6065 9.3807 97.5821 9.64634 97.4986 9.89598C97.4151 10.1456 97.2747 10.3725 97.0885 10.5586C96.9024 10.7448 96.6756 10.8851 96.4259 10.9687C96.1763 11.0522 95.9106 11.0766 95.6499 11.04V12.48C95.6499 12.96 95.1699 12.96 94.6899 12.96V13.92C94.6265 13.9186 94.5635 13.9301 94.5046 13.9538C94.4458 13.9774 94.3923 14.0127 94.3475 14.0576C94.3026 14.1024 94.2673 14.1559 94.2437 14.2147C94.22 14.2736 94.2086 14.3366 94.2099 14.4C94.2113 14.4634 94.1998 14.5264 94.1762 14.5853C94.1525 14.6441 94.1172 14.6976 94.0724 14.7425C94.0275 14.7873 93.9741 14.8226 93.9152 14.8462C93.8564 14.8699 93.7933 14.8814 93.7299 14.88V15.36C93.1372 15.9071 92.6492 16.5578 92.2899 17.28C91.9551 17.8632 91.7889 18.5279 91.8099 19.2V19.2V21.6C91.8099 22.08 91.3299 22.08 90.8499 22.08V24H89.8899V24.96C89.8899 25.44 89.8899 25.44 89.4099 25.92C89.4099 26.4 88.9299 26.4 88.9299 26.88V27.84L87.9699 28.8V31.68C87.4899 31.68 87.4899 31.68 87.4899 32.16C87.4899 32.64 87.4899 32.64 87.0099 33.12V36.96L86.5299 37.44H86.0499L87.0099 38.4V38.88H86.0499C85.5699 38.88 86.0499 38.88 86.0499 39.36V42.72C86.0711 43.3921 85.9049 44.0569 85.5699 44.64L85.0899 45.6L84.6099 45.12H83.6499C83.389 44.8613 83.2204 44.524 83.1699 44.16V42.24C83.1769 41.8687 83.2667 41.5036 83.4328 41.1714C83.5989 40.8393 83.837 40.5484 84.1299 40.32V36C84.0977 35.7394 84.1241 35.4749 84.2071 35.2257C84.2901 34.9766 84.4278 34.7492 84.6099 34.56C84.6099 34.08 85.0899 33.6 85.0899 33.12C85.0899 32.64 85.5699 32.16 85.5699 31.68C85.5699 31.2 86.0499 30.72 86.0499 30.24C85.9851 30.178 85.9334 30.1035 85.8982 30.021C85.8629 29.9385 85.8447 29.8497 85.8447 29.76C85.8447 29.6703 85.8629 29.5815 85.8982 29.499C85.9334 29.4165 85.9851 29.342 86.0499 29.28C86.0499 28.8 86.0499 28.8 86.5299 28.32C87.0099 27.84 87.0099 27.84 87.0099 27.36C87.0099 26.88 87.4899 26.88 87.4899 26.4V25.44C87.4899 24.96 87.9699 24.96 87.9699 24.48C87.9699 24 88.4499 24 88.4499 23.52L88.9299 23.04V22.08C89.4099 21.6 89.4099 21.12 89.4099 20.16V18.24L90.8499 16.8C91.0321 16.6108 91.1697 16.3834 91.2527 16.1343C91.3358 15.8851 91.3621 15.6206 91.3299 15.36C91.8099 14.88 91.8099 14.4 92.2899 13.92C92.3403 13.556 92.509 13.2187 92.7699 12.96C92.7699 12.48 93.2499 12.48 93.2499 12C93.2133 11.7393 93.2377 11.4737 93.3212 11.224C93.4048 10.9744 93.5452 10.7475 93.7313 10.5614C93.9175 10.3752 94.1443 10.2349 94.3939 10.1513C94.6436 10.0678 94.9092 10.0434 95.1699 10.08V9.12L96.1299 8.16C96.6099 7.68 96.6099 7.2 97.0899 6.72L98.5299 5.28C99.0099 4.8 99.4899 4.32 99.9699 4.32V3.36H100.45V2.88C100.45 2.4 100.45 2.88 100.93 2.4H101.89C102.149 2.13903 102.486 1.97037 102.85 1.92C103.33 1.92 103.81 1.44 104.29 1.44H105.73C105.25 1.92 105.73 1.92 106.21 2.4Z" fill="black"/>
<path d="M113.893 1.92001V3.84001C113.928 4.20861 114.099 4.55093 114.373 4.80001C114.372 4.86342 114.383 4.92645 114.407 4.9853C114.43 5.04416 114.466 5.09762 114.511 5.14246C114.555 5.18731 114.609 5.22262 114.668 5.24625C114.727 5.26989 114.79 5.28138 114.853 5.28001V21.6C114.821 21.8606 114.847 22.1252 114.93 22.3743C115.013 22.6234 115.151 22.8509 115.333 23.04C115.515 23.2292 115.653 23.4566 115.736 23.7057C115.819 23.9549 115.845 24.2194 115.813 24.48C115.75 24.4786 115.687 24.4901 115.628 24.5138C115.569 24.5374 115.515 24.5727 115.471 24.6176C115.426 24.6624 115.39 24.7159 115.367 24.7747C115.343 24.8336 115.332 24.8966 115.333 24.96C115.365 25.2206 115.339 25.4852 115.256 25.7343C115.173 25.9834 115.035 26.2109 114.853 26.4V39.36H115.813L116.293 38.88L116.773 38.4H117.733V37.44C117.992 37.179 118.329 37.0104 118.693 36.96C119.173 36.96 119.653 36.48 120.133 36C120.613 35.52 121.093 35.52 121.573 35.04L122.533 34.08H124.453C124.488 33.7114 124.659 33.3691 124.933 33.12L126.373 31.68L127.813 30.24C128.087 29.9909 128.258 29.6486 128.293 29.28C128.552 29.0192 128.889 28.8506 129.253 28.8C129.514 28.7677 129.778 28.7941 130.027 28.8771C130.276 28.9601 130.504 29.0978 130.693 29.28C131.173 29.76 131.653 29.76 131.653 30.24C131.674 30.9121 131.508 31.5768 131.173 32.16L130.213 33.12C128.66 34.0873 127.213 35.2134 125.893 36.48C124.453 37.92 123.013 38.88 121.573 40.32C120.613 40.32 120.613 40.8 120.613 40.8H120.133V41.28L119.653 41.76C119.59 41.7586 119.527 41.7701 119.468 41.7938C119.409 41.8174 119.355 41.8527 119.311 41.8976C119.266 41.9424 119.23 41.9959 119.207 42.0547C119.183 42.1136 119.172 42.1766 119.173 42.24H118.693L118.213 42.72C118.15 42.7186 118.087 42.7301 118.028 42.7538C117.969 42.7774 117.915 42.8127 117.871 42.8576C117.826 42.9024 117.79 42.9559 117.767 43.0147C117.743 43.0736 117.732 43.1366 117.733 43.2C117.733 43.68 117.253 43.2 117.253 43.2C117.285 43.4606 117.259 43.7252 117.176 43.9743C117.093 44.2235 116.955 44.4509 116.773 44.64C116.293 45.12 116.293 45.6 115.813 45.6C115.333 45.6 114.853 46.08 114.373 46.08C113.893 46.08 113.413 45.6 112.933 45.6C112.87 45.6014 112.807 45.5899 112.748 45.5663C112.689 45.5426 112.635 45.5073 112.591 45.4625C112.546 45.4176 112.51 45.3642 112.487 45.3053C112.463 45.2464 112.452 45.1834 112.453 45.12C112.454 45.0566 112.443 44.9936 112.419 44.9347C112.396 44.8759 112.36 44.8224 112.315 44.7776C112.271 44.7327 112.217 44.6974 112.158 44.6738C112.099 44.6501 112.036 44.6387 111.973 44.64C111.973 44.16 111.493 44.16 111.493 43.68V38.88C111.525 37.5448 111.853 36.2333 112.453 35.04V26.88C112.563 25.5805 112.399 24.2725 111.973 23.04C111.578 21.8005 111.415 20.4986 111.493 19.2L111.973 18.72V16.32C112.453 16.32 112.933 16.32 112.933 15.84V13.92C112.934 13.8566 112.923 13.7936 112.899 13.7347C112.876 13.6759 112.84 13.6224 112.795 13.5776C112.751 13.5327 112.697 13.4974 112.638 13.4738C112.579 13.4501 112.516 13.4386 112.453 13.44L111.973 12.96C111.941 12.6994 111.967 12.4348 112.05 12.1857C112.133 11.9365 112.271 11.7091 112.453 11.52C112.635 11.3309 112.773 11.1034 112.856 10.8543C112.939 10.6052 112.965 10.3406 112.933 10.08C112.965 9.8194 112.939 9.55487 112.856 9.30574C112.773 9.05662 112.635 8.82917 112.453 8.64001C112.271 8.45093 112.133 8.2235 112.05 7.97435C111.967 7.7252 111.941 7.46064 111.973 7.20001V5.76001C111.973 5.28001 111.973 5.28001 111.493 4.80001C111.493 4.32001 111.493 3.84001 111.973 3.84001C111.973 3.36001 112.453 3.36001 112.933 3.36001H113.893C112.933 1.92001 113.413 1.92001 113.893 1.92001Z" fill="black"/>
<path d="M140.293 2.40001V12H139.333V13.92C139.333 14.88 139.333 15.36 139.813 15.84C139.995 16.0291 140.133 16.2566 140.216 16.5057C140.299 16.7548 140.325 17.0194 140.293 17.28V19.2C140.325 19.4606 140.299 19.7252 140.216 19.9744C140.133 20.2235 139.995 20.4509 139.813 20.64C139.333 21.12 139.813 21.6 139.333 21.6V22.56C139.333 23.52 139.333 24 139.813 24.48C139.995 24.6691 140.133 24.8966 140.216 25.1457C140.299 25.3948 140.325 25.6594 140.293 25.92V33.12C140.293 33.6 139.813 34.08 139.813 34.56V42.72C139.762 43.084 139.594 43.4213 139.333 43.68C139.333 44.16 138.853 44.16 138.373 44.64C138.184 44.8222 137.956 44.9598 137.707 45.0428C137.458 45.1259 137.193 45.1522 136.933 45.12C136.453 45.12 136.453 45.12 136.453 44.64C136.453 44.16 135.973 43.68 135.973 43.2V35.52C136.005 35.2594 135.979 34.9948 135.896 34.7457C135.813 34.4965 135.675 34.2691 135.493 34.08C135.525 33.8194 135.499 33.5549 135.416 33.3057C135.333 33.0566 135.195 32.8292 135.013 32.64V31.68C135.076 31.6814 135.139 31.6699 135.198 31.6463C135.257 31.6226 135.31 31.5873 135.355 31.5425C135.4 31.4976 135.435 31.4442 135.459 31.3853C135.483 31.3265 135.494 31.2634 135.493 31.2V28.32C135.494 28.2566 135.483 28.1936 135.459 28.1347C135.435 28.0759 135.4 28.0224 135.355 27.9776C135.31 27.9327 135.257 27.8974 135.198 27.8738C135.139 27.8501 135.076 27.8386 135.013 27.84V16.32C134.948 16.2579 134.897 16.1834 134.861 16.1009C134.826 16.0184 134.808 15.9297 134.808 15.84C134.808 15.7503 134.826 15.6616 134.861 15.5791C134.897 15.4966 134.948 15.4221 135.013 15.36C134.981 15.0994 135.007 14.8349 135.09 14.5857C135.173 14.3366 135.311 14.1092 135.493 13.92C135.493 13.44 135.973 12.96 135.973 12.48C135.973 12 136.453 12 136.453 11.52V0.480014C136.453 1.36197e-05 136.933 1.36578e-05 137.413 1.36578e-05C137.673 -0.0322796 137.938 -0.00594109 138.187 0.0771049C138.436 0.160151 138.664 0.297806 138.853 0.480014C139.332 0.960014 139.814 2.40001 140.293 2.40001Z" fill="black"/>
<path d="M165.251 2.88003C165.615 2.82959 165.952 2.66094 166.211 2.40003H167.651L166.691 3.36003L166.211 3.84003V4.32003H166.691L164.771 5.28003C164.707 5.27866 164.644 5.29015 164.586 5.31379C164.527 5.33743 164.473 5.37273 164.428 5.41758C164.384 5.46243 164.348 5.51588 164.325 5.57474C164.301 5.63359 164.29 5.69662 164.291 5.76003L163.811 6.24003C163.811 6.72003 163.331 6.72003 163.331 7.20003L162.371 8.16003L161.411 9.12003C160.931 9.60003 160.931 9.60003 160.451 9.60003C159.971 9.60003 159.971 10.08 159.491 10.08L158.531 11.04C158.531 11.52 158.051 11.52 158.051 12C158.051 12.48 157.571 12.48 157.571 12.96H156.611C156.131 12.96 156.131 12.96 155.651 13.44C155.171 13.44 155.171 13.92 154.691 13.92C154.656 14.2886 154.485 14.6309 154.211 14.88C154.211 15.36 153.731 15.36 153.731 15.84C153.731 16.32 154.211 15.36 154.211 15.36C153.731 15.36 153.731 15.84 153.251 15.84L154.211 16.8C154.21 16.8634 154.221 16.9265 154.245 16.9853C154.268 17.0442 154.304 17.0976 154.348 17.1425C154.393 17.1873 154.447 17.2226 154.506 17.2463C154.564 17.2699 154.627 17.2814 154.691 17.28C155.171 17.28 155.171 17.76 155.651 17.76C156.131 17.76 156.131 18.24 156.611 18.24C157.091 18.24 157.091 18.72 157.091 19.2L163.811 23.52C163.874 23.5187 163.937 23.5301 163.996 23.5538C164.055 23.5774 164.109 23.6127 164.153 23.6576C164.198 23.7024 164.234 23.7559 164.257 23.8147C164.281 23.8736 164.292 23.9366 164.291 24C164.291 24.48 164.771 24.48 164.771 24.96V25.92C164.771 26.4 164.771 26.4 164.291 26.88L163.811 27.84L161.891 29.28C161.891 29.76 161.891 29.76 161.411 30.24H160.931L160.451 31.2C160.192 31.461 159.855 31.6297 159.491 31.68C159.011 31.68 159.011 32.16 158.531 32.16C158.467 32.1587 158.404 32.1701 158.346 32.1938C158.287 32.2174 158.233 32.2527 158.188 32.2976C158.144 32.3424 158.108 32.3959 158.085 32.4547C158.061 32.5136 158.05 32.5766 158.051 32.64L157.571 33.12L155.651 35.04L153.251 37.44C153.252 37.5034 153.241 37.5665 153.217 37.6253C153.193 37.6842 153.158 37.7376 153.113 37.7825C153.068 37.8273 153.015 37.8626 152.956 37.8863C152.897 37.9099 152.834 37.9214 152.771 37.92C152.707 37.9187 152.644 37.9301 152.586 37.9538C152.527 37.9774 152.473 38.0127 152.428 38.0576C152.384 38.1024 152.348 38.1559 152.325 38.2147C152.301 38.2736 152.29 38.3366 152.291 38.4C152.291 38.88 151.811 38.4 151.811 38.88L151.331 39.36C151.332 39.4234 151.321 39.4865 151.297 39.5453C151.273 39.6042 151.238 39.6576 151.193 39.7025C151.148 39.7473 151.095 39.7826 151.036 39.8063C150.977 39.8299 150.914 39.8414 150.851 39.84C150.371 39.84 150.371 40.32 149.891 40.32C149.411 40.32 149.411 40.8 148.931 40.8C148.867 40.7987 148.804 40.8102 148.746 40.8338C148.687 40.8574 148.633 40.8927 148.588 40.9376C148.544 40.9824 148.508 41.0359 148.485 41.0947C148.461 41.1536 148.45 41.2166 148.451 41.28L147.011 43.2L145.091 44.16C145.092 44.2234 145.081 44.2865 145.057 44.3453C145.033 44.4042 144.998 44.4576 144.953 44.5025C144.908 44.5473 144.855 44.5826 144.796 44.6063C144.737 44.6299 144.674 44.6414 144.611 44.64H144.131C143.651 44.64 143.651 44.64 143.171 44.16V43.198C143.171 42.718 143.651 42.718 144.131 42.718C144.131 42.238 144.131 41.758 144.611 41.758L145.091 41.278L146.531 39.838C146.72 39.6559 146.947 39.5183 147.197 39.4352C147.446 39.3522 147.71 39.3258 147.971 39.358C147.97 39.2946 147.981 39.2316 148.005 39.1727C148.028 39.1139 148.064 39.0604 148.108 39.0156C148.153 38.9707 148.207 38.9354 148.266 38.9118C148.324 38.8881 148.387 38.8767 148.451 38.878L148.931 38.398L149.411 37.918L149.891 37.438L150.851 36.478H151.331C151.811 36.478 151.811 35.998 151.811 35.518L152.771 34.558L153.731 33.598L156.131 31.198L157.091 30.238H156.611C156.547 30.2394 156.484 30.2279 156.426 30.2043C156.367 30.1806 156.313 30.1453 156.268 30.1005C156.224 30.0556 156.188 30.0022 156.165 29.9433C156.141 29.8845 156.13 29.8214 156.131 29.758L155.651 29.278C154.929 28.9187 154.278 28.4307 153.731 27.838C153.251 27.358 152.291 26.878 151.811 25.918C151.442 25.8832 151.1 25.712 150.851 25.438C150.371 25.438 149.891 24.958 148.931 24.478C148.382 24.2767 147.888 23.9477 147.491 23.518C147.309 23.3289 147.171 23.1015 147.088 22.8523C147.005 22.6032 146.979 22.3386 147.011 22.078C147.012 22.0146 147.001 21.9516 146.977 21.8927C146.954 21.8339 146.918 21.7804 146.873 21.7356C146.829 21.6907 146.775 21.6554 146.716 21.6318C146.657 21.6081 146.594 21.5967 146.531 21.598H145.091L144.611 21.118H145.091C145.09 21.0546 145.101 20.9916 145.125 20.9327C145.148 20.8739 145.184 20.8204 145.228 20.7756C145.273 20.7307 145.327 20.6954 145.386 20.6718C145.444 20.6481 145.507 20.6367 145.571 20.638C145.57 20.5746 145.581 20.5116 145.605 20.4527C145.628 20.3939 145.664 20.3404 145.708 20.2956C145.753 20.2507 145.807 20.2154 145.866 20.1918C145.924 20.1681 145.987 20.1567 146.051 20.158V19.678L147.971 18.718C148.006 18.3494 148.177 18.0071 148.451 17.758L149.411 16.798C149.891 16.318 150.371 16.318 150.851 15.838C151.444 15.2909 151.932 14.6402 152.291 13.918C152.771 13.438 153.251 12.478 154.211 11.998C154.21 11.9346 154.221 11.8716 154.245 11.8127C154.268 11.7539 154.304 11.7004 154.348 11.6556C154.393 11.6107 154.447 11.5754 154.506 11.5518C154.564 11.5281 154.627 11.5167 154.691 11.518L155.171 11.038C155.54 11.0032 155.882 10.832 156.131 10.558C156.611 10.558 156.611 10.078 157.091 10.078C157.126 9.70943 157.297 9.36711 157.571 9.11803L158.531 8.15803C159.011 7.67803 159.491 7.67803 159.971 7.19803C159.97 7.13462 159.981 7.07159 160.005 7.01274C160.028 6.95389 160.064 6.90043 160.108 6.85558C160.153 6.81073 160.207 6.77543 160.266 6.75179C160.324 6.72815 160.387 6.71666 160.451 6.71803L160.931 6.23803C161.411 6.23803 161.411 5.75803 161.891 5.75803L164.291 4.31803C164.29 4.25462 164.301 4.19159 164.325 4.13274C164.348 4.07388 164.384 4.02043 164.428 3.97558C164.473 3.93073 164.527 3.89543 164.586 3.87179C164.644 3.84815 164.707 3.83666 164.771 3.83803C164.834 3.83939 164.897 3.82791 164.956 3.80427C165.015 3.78063 165.068 3.74532 165.113 3.70048C165.158 3.65563 165.193 3.60217 165.217 3.54332C165.241 3.48446 165.252 3.42144 165.251 3.35803C165.314 3.35939 165.377 3.34791 165.436 3.32427C165.495 3.30063 165.549 3.26532 165.593 3.22048C165.638 3.17563 165.674 3.12217 165.697 3.06332C165.721 3.00446 165.732 2.94144 165.731 2.87803C165.73 2.81462 165.741 2.75159 165.765 2.69274C165.788 2.63388 165.824 2.58043 165.868 2.53558C165.913 2.49073 165.967 2.45543 166.026 2.43179C166.084 2.40815 166.147 2.39666 166.211 2.39803H165.251V2.88003ZM156.131 22.56C155.762 22.5252 155.42 22.354 155.171 22.08L154.211 21.12L153.251 20.16C152.771 19.68 152.771 19.68 152.291 19.68V20.16L151.811 19.68C151.55 19.4213 151.381 19.084 151.331 18.72L150.371 17.76C150.002 17.795 149.66 17.9662 149.411 18.24C148.931 18.72 149.411 19.2 149.411 19.68C148.931 20.16 148.931 20.64 148.451 21.12C148.931 21.6 149.891 22.08 150.371 22.56C150.851 23.04 151.331 23.04 151.811 23.52C152.06 23.7939 152.402 23.965 152.771 24C153.251 24.48 153.731 24.96 154.211 24.96C154.691 24.96 155.171 25.44 155.651 25.44L157.571 26.4C157.571 26.88 158.051 26.88 158.051 27.36L158.531 27.84L159.011 28.32V29.28H159.971V28.32L160.931 27.36V26.398C160.451 25.918 160.451 25.438 159.971 24.958L159.011 23.998C158.822 23.8159 158.594 23.6783 158.345 23.5952C158.096 23.5122 157.832 23.4858 157.571 23.518L156.131 22.56Z" fill="black"/>
<path d="M186.854 0.960999L187.334 1.441H188.294C188.357 1.43963 188.42 1.45112 188.479 1.47476C188.538 1.4984 188.591 1.5337 188.636 1.57855C188.681 1.6234 188.716 1.67686 188.74 1.73571C188.764 1.79456 188.775 1.85759 188.774 1.921V4.801C188.824 5.16496 188.993 5.50227 189.254 5.761V21.601L189.734 22.081C189.797 22.0824 189.86 22.0709 189.919 22.0472C189.978 22.0236 190.031 21.9883 190.076 21.9434C190.121 21.8986 190.156 21.8451 190.18 21.7863C190.204 21.7274 190.215 21.6644 190.214 21.601C190.212 21.5376 190.224 21.4746 190.248 21.4157C190.271 21.3569 190.306 21.3034 190.351 21.2586C190.396 21.2137 190.45 21.1784 190.508 21.1548C190.567 21.1311 190.63 21.1196 190.694 21.121L191.174 20.641V19.681L192.134 18.721H193.094V17.761H194.054V16.801H195.014V16.321L195.494 15.841C195.974 15.361 195.974 15.841 195.974 15.841V14.881H196.934L197.894 13.921V13.441C197.894 12.961 198.374 12.961 198.854 12.961V12.001H202.694V13.921C202.694 14.401 202.694 14.401 203.174 14.881C203.174 15.361 203.174 15.361 203.654 15.841C204.134 16.321 203.654 16.321 203.654 16.801C203.393 17.0597 203.224 17.397 203.174 17.761V20.641C203.174 21.121 203.174 21.121 202.694 21.121V24.481L202.214 24.961V30.241C202.214 30.721 202.214 31.201 202.694 31.201V33.601C202.726 33.8616 202.7 34.1261 202.617 34.3753C202.534 34.6244 202.396 34.8518 202.214 35.041C202.163 35.405 201.995 35.7423 201.734 36.001C201.67 35.9996 201.607 36.0111 201.548 36.0348C201.49 36.0584 201.436 36.0937 201.391 36.1385C201.346 36.1834 201.311 36.2369 201.288 36.2957C201.264 36.3546 201.252 36.4176 201.254 36.481C201.254 36.961 201.254 36.961 201.734 37.441C202.214 37.921 201.734 37.921 202.214 38.401C202.214 38.881 202.214 38.881 201.734 38.881V43.201C201.254 43.681 200.774 43.681 200.294 44.161C199.814 44.641 199.334 44.161 198.854 44.161C198.374 44.161 198.374 43.681 197.894 43.201V39.361C197.894 38.881 198.374 38.401 198.374 37.921V32.161C198.303 31.4844 198.473 30.8045 198.854 30.241C198.783 29.5643 198.953 28.8842 199.335 28.321V26.401C199.335 25.441 198.855 24.481 199.335 24.001C199.259 23.0163 199.424 22.0279 199.815 21.121C200.295 20.161 199.815 19.201 200.295 18.241C200.371 17.2563 200.206 16.2679 199.815 15.361H199.335C198.855 15.361 198.855 15.841 198.375 16.321L196.935 17.761C196.455 18.241 196.455 18.721 195.975 18.721H195.015V21.601H194.055V22.561H193.095V23.521H192.135V24.001C192.135 24.481 191.655 24.481 191.175 24.481V25.441H190.215V26.401L189.735 26.881C189.735 27.361 189.735 27.361 190.215 27.361V29.281H189.255L190.215 32.641V35.521C190.291 36.5057 190.126 37.4942 189.735 38.401C189.387 39.1517 189.222 39.9743 189.255 40.801C189.255 41.281 189.735 41.761 189.735 42.241C189.767 42.5016 189.741 42.7661 189.658 43.0153C189.575 43.2644 189.437 43.4918 189.255 43.681C189.238 43.9301 189.131 44.1646 188.955 44.3411C188.778 44.5176 188.544 44.6242 188.295 44.641C187.815 44.641 187.335 45.121 186.375 45.121V44.161H185.415V41.281C185.861 40.5375 186.185 39.7272 186.375 38.881V30.241C186.375 28.801 185.895 27.841 185.895 26.881C185.415 25.921 185.415 25.441 184.935 24.961V24.001H182.055L180.615 22.561C180.426 22.3788 180.198 22.2411 179.949 22.1581C179.7 22.075 179.435 22.0487 179.175 22.081L178.695 21.601C178.631 21.6024 178.568 21.5909 178.509 21.5672C178.451 21.5436 178.397 21.5083 178.352 21.4634C178.307 21.4186 178.272 21.3651 178.249 21.3063C178.225 21.2474 178.213 21.1844 178.215 21.121C178.215 20.641 177.735 21.121 177.735 21.121C177.255 20.641 176.775 20.161 176.775 19.681C176.775 19.201 176.295 19.201 175.815 19.201C175.335 19.201 175.335 19.681 174.855 20.161C174.375 20.641 174.855 21.601 174.855 22.081V32.641C174.887 32.9016 174.861 33.1661 174.778 33.4153C174.695 33.6644 174.557 33.8918 174.375 34.081C174.193 34.2702 174.055 34.4976 173.972 34.7467C173.889 34.9959 173.863 35.2604 173.895 35.521L174.855 36.481V36.961H174.375C174.311 36.9624 174.248 36.9509 174.189 36.9272C174.131 36.9036 174.077 36.8683 174.032 36.8234C173.987 36.7786 173.952 36.7251 173.929 36.6663C173.905 36.6074 173.893 36.5444 173.895 36.481C173.863 36.7416 173.889 37.0061 173.972 37.2553C174.055 37.5044 174.193 37.7318 174.375 37.921C174.557 38.1102 174.695 38.3376 174.778 38.5867C174.861 38.8359 174.887 39.1004 174.855 39.361C174.375 39.841 173.895 39.841 173.895 40.321V41.281C173.895 41.761 173.415 42.241 173.415 42.721V44.161C173.415 44.641 173.415 45.121 172.935 45.121C172.455 45.121 172.935 45.601 172.455 45.601C171.975 45.601 171.495 45.601 171.495 45.121C171.431 45.1224 171.368 45.1109 171.309 45.0872C171.251 45.0636 171.197 45.0283 171.152 44.9834C171.107 44.9386 171.072 44.8851 171.049 44.8263C171.025 44.7674 171.013 44.7044 171.015 44.641V42.721C171.015 42.241 171.495 41.761 171.495 41.281V36.481C171.494 36.4176 171.505 36.3547 171.529 36.2959C171.552 36.2371 171.588 36.1837 171.633 36.1389C171.677 36.094 171.731 36.0587 171.79 36.035C171.848 36.0114 171.911 35.9998 171.975 36.001C172.455 36.001 171.975 36.001 172.455 35.521V31.681C172.526 31.0044 172.356 30.3244 171.975 29.761C171.975 29.281 171.495 28.801 171.495 28.321V21.601C171.419 20.6163 171.584 19.6279 171.975 18.721C172.403 17.6561 172.568 16.5033 172.455 15.361V14.401C172.453 14.3376 172.465 14.2746 172.489 14.2157C172.512 14.1569 172.547 14.1034 172.592 14.0585C172.637 14.0137 172.691 13.9784 172.749 13.9548C172.808 13.9311 172.871 13.9196 172.935 13.921C172.935 13.441 173.415 13.441 173.415 12.961H176.295C176.358 12.9596 176.421 12.9711 176.48 12.9948C176.539 13.0184 176.592 13.0537 176.637 13.0985C176.682 13.1434 176.717 13.1969 176.741 13.2557C176.765 13.3146 176.776 13.3776 176.775 13.441V14.881H177.735V15.361C177.735 15.841 177.735 15.841 178.215 16.321H178.695L179.655 17.281V18.241H180.615V19.201H181.575V20.161H183.495C183.458 20.4217 183.483 20.6873 183.566 20.937C183.65 21.1866 183.79 21.4135 183.976 21.5996C184.162 21.7858 184.389 21.9261 184.639 22.0097C184.888 22.0932 185.154 22.1176 185.415 22.081H186.375C186.375 22.561 186.375 22.561 186.855 23.041H187.335V9.121C187.335 8.641 187.335 8.641 187.815 8.641C187.813 8.57759 187.825 8.51456 187.849 8.45571C187.872 8.39686 187.907 8.3434 187.952 8.29855C187.997 8.2537 188.051 8.2184 188.109 8.19476C188.168 8.17112 188.231 8.15963 188.295 8.161V7.681C188.231 7.68236 188.168 7.67088 188.109 7.64724C188.051 7.6236 187.997 7.58829 187.952 7.54345C187.907 7.4986 187.872 7.44514 187.849 7.38629C187.825 7.32743 187.813 7.26441 187.815 7.201V6.721H188.295V3.361H188.775L189.255 2.881C189.735 2.401 186.854 1.441 186.854 0.960999Z" fill="black"/>
<path d="M235.331 15.36C235.665 15.7634 235.836 16.277 235.811 16.8C236.018 17.5899 236.178 18.3913 236.291 19.2C236.245 20.3399 236.408 21.4786 236.771 22.56V28.32C236.803 28.5806 236.777 28.8452 236.694 29.0943C236.611 29.3434 236.473 29.5708 236.291 29.76V30.72H235.331L233.411 35.04V35.52C233.412 35.5834 233.401 35.6464 233.377 35.7053C233.354 35.7642 233.318 35.8176 233.273 35.8625C233.229 35.9073 233.175 35.9426 233.116 35.9663C233.057 35.9899 232.994 36.0014 232.931 36L232.451 36.48V36.96L231.971 37.44C231.972 37.5034 231.961 37.5664 231.937 37.6253C231.914 37.6842 231.878 37.7376 231.833 37.7825C231.789 37.8273 231.735 37.8626 231.676 37.8863C231.617 37.9099 231.554 37.9214 231.491 37.92V38.4H231.011C230.948 38.3986 230.885 38.4101 230.826 38.4338C230.767 38.4574 230.713 38.4927 230.669 38.5376C230.624 38.5824 230.588 38.6359 230.565 38.6947C230.541 38.7536 230.53 38.8166 230.531 38.88L230.051 39.36H229.091V39.84C229.092 39.9034 229.081 39.9664 229.057 40.0253C229.034 40.0842 228.998 40.1376 228.953 40.1825C228.909 40.2273 228.855 40.2626 228.796 40.2863C228.737 40.3099 228.674 40.3214 228.611 40.32H227.171C226.922 40.3369 226.687 40.4434 226.511 40.6199C226.334 40.7964 226.228 41.0309 226.211 41.28H225.251C224.99 41.2477 224.726 41.2741 224.477 41.3571C224.228 41.4401 224 41.5778 223.811 41.76C223.55 41.7278 223.286 41.7542 223.037 41.8372C222.788 41.9202 222.56 42.0579 222.371 42.24H221.411C221.411 42.72 221.891 43.2 221.891 43.68V44.64C221.891 45.12 221.891 45.12 221.411 45.12C221.412 45.1834 221.401 45.2464 221.377 45.3053C221.354 45.3642 221.318 45.4176 221.273 45.4625C221.229 45.5073 221.175 45.5426 221.116 45.5662C221.057 45.5899 220.994 45.6014 220.931 45.6H219.011C218.948 45.6014 218.885 45.5899 218.826 45.5662C218.767 45.5426 218.713 45.5073 218.669 45.4625C218.624 45.4176 218.588 45.3642 218.565 45.3053C218.541 45.2464 218.53 45.1834 218.531 45.12L218.051 44.64V43.68H217.571L217.091 43.2C217.028 43.2014 216.965 43.1899 216.906 43.1663C216.847 43.1426 216.793 43.1073 216.748 43.0625C216.704 43.0176 216.668 42.9642 216.645 42.9053C216.621 42.8464 216.61 42.7834 216.611 42.72H215.171C214.211 42.24 213.731 41.76 212.771 41.28C212.039 40.6951 211.232 40.2108 210.371 39.84C209.891 39.84 209.891 39.84 209.411 39.36C209.411 38.88 208.931 38.4 208.451 37.92L207.491 36.96C207.491 36.48 207.011 36 206.531 35.04C206.051 34.08 206.051 33.12 205.571 32.16C205.18 31.2531 205.015 30.2647 205.091 29.28C205.091 28.32 204.611 27.84 204.611 27.36C204.35 27.1013 204.181 26.764 204.131 26.4V24.48C204.13 24.4166 204.141 24.3536 204.165 24.2947C204.188 24.2359 204.224 24.1824 204.269 24.1376C204.313 24.0927 204.367 24.0574 204.426 24.0338C204.485 24.0101 204.548 23.9986 204.611 24C204.611 23.04 205.091 22.56 205.091 21.6C205.02 20.9234 205.19 20.2434 205.571 19.68C206.051 19.2 205.571 18.72 205.571 18.24C206.051 17.76 206.051 17.28 206.531 16.8C206.581 16.436 206.75 16.0987 207.011 15.84C207.011 15.36 207.491 15.36 207.491 14.88L207.971 14.4C207.97 14.3366 207.981 14.2736 208.005 14.2147C208.028 14.1559 208.064 14.1024 208.109 14.0576C208.153 14.0127 208.207 13.9774 208.266 13.9538C208.325 13.9301 208.388 13.9186 208.451 13.92V13.44C208.81 12.4509 209.485 11.6076 210.371 11.04L212.291 9.12001H213.251C213.286 8.75141 213.457 8.40909 213.731 8.16001L214.691 7.20001C214.88 7.0178 215.108 6.88015 215.357 6.7971C215.606 6.71406 215.87 6.68772 216.131 6.72001C216.611 6.72001 217.091 6.24001 217.571 6.24001V4.32001C217.539 4.05939 217.565 3.79487 217.648 3.54574C217.731 3.29662 217.869 3.06917 218.051 2.88001L218.531 2.40001H220.451C220.514 2.39865 220.577 2.41013 220.636 2.43377C220.695 2.45741 220.749 2.49272 220.793 2.53756C220.838 2.58241 220.874 2.63587 220.897 2.69472C220.921 2.75357 220.932 2.8166 220.931 2.88001C220.899 3.14063 220.925 3.40515 221.008 3.65428C221.091 3.90341 221.229 4.13085 221.411 4.32001V6.72001L225.731 7.68001L228.611 8.64001H229.571L230.531 9.60001H231.491V10.56H232.451L233.411 12.48C233.411 12.96 233.891 12.96 233.891 13.44C233.891 13.92 234.371 13.92 234.371 14.4C234.371 14.88 234.851 14.88 234.851 15.36H235.331V15.36ZM232.451 27.36C232.931 27.36 232.931 26.88 232.931 26.4V23.998C232.931 23.038 232.451 22.078 232.451 21.118C232.451 20.158 231.971 19.198 231.971 18.238C231.971 17.278 231.491 16.798 231.491 15.838C231.491 14.878 231.011 14.878 231.011 14.878L229.571 13.438C229.091 12.958 229.091 12.478 228.611 12.478C228.131 11.998 228.131 11.998 228.131 11.518L226.211 10.078C225.251 10.078 224.291 9.59801 223.331 9.59801H221.411C220.931 9.59801 220.451 9.59801 220.451 10.078H219.011C218.642 10.113 218.3 10.2842 218.051 10.558C217.571 11.038 217.571 11.038 217.091 11.038C216.419 11.017 215.754 11.1832 215.171 11.518C214.449 11.8772 213.798 12.3652 213.251 12.958H212.291V13.918L210.371 15.838C209.891 16.318 209.891 16.798 209.411 17.758C208.931 18.718 208.931 19.198 208.451 20.158V26.878C208.45 26.9414 208.461 27.0044 208.485 27.0633C208.508 27.1222 208.544 27.1756 208.589 27.2205C208.633 27.2653 208.687 27.3006 208.746 27.3243C208.805 27.3479 208.868 27.3594 208.931 27.358V28.798C208.931 29.278 209.411 30.238 209.411 30.718C209.411 31.198 209.891 32.158 209.891 32.638C209.891 33.118 210.371 33.598 210.371 34.078L212.291 35.998L214.691 36.958H217.571C217.634 36.9566 217.697 36.9681 217.756 36.9918C217.815 37.0154 217.869 37.0507 217.913 37.0956C217.958 37.1404 217.994 37.1939 218.017 37.2527C218.041 37.3116 218.052 37.3746 218.051 37.438L218.531 37.918H223.811C223.874 37.9166 223.937 37.9281 223.996 37.9518C224.055 37.9754 224.109 38.0107 224.153 38.0556C224.198 38.1004 224.234 38.1539 224.257 38.2127C224.281 38.2716 224.292 38.3346 224.291 38.398L227.171 37.438C227.17 37.3746 227.181 37.3116 227.205 37.2527C227.228 37.1939 227.264 37.1404 227.309 37.0956C227.353 37.0507 227.407 37.0154 227.466 36.9918C227.525 36.9681 227.588 36.9566 227.651 36.958C228.131 36.958 228.131 36.478 228.611 36.478C229.091 36.478 229.091 35.998 229.571 35.998C229.634 35.9994 229.697 35.9879 229.756 35.9643C229.815 35.9406 229.869 35.9053 229.913 35.8605C229.958 35.8156 229.994 35.7622 230.017 35.7033C230.041 35.6444 230.052 35.5814 230.051 35.518C230.051 35.038 230.531 34.558 230.531 34.078C230.53 34.0146 230.541 33.9516 230.565 33.8927C230.588 33.8339 230.624 33.7804 230.669 33.7356C230.713 33.6907 230.767 33.6554 230.826 33.6318C230.885 33.6081 230.948 33.5966 231.011 33.598H231.491V31.678C231.491 31.198 231.491 31.198 231.971 30.718C231.971 30.238 231.971 30.238 232.451 29.758V27.358V27.36ZM223.811 24.48V25.92C223.811 26.4 223.331 26.88 222.851 27.36C222.662 27.5422 222.434 27.6799 222.185 27.7629C221.936 27.846 221.672 27.8723 221.411 27.84C220.689 27.7204 220.02 27.3858 219.491 26.88C219.198 26.6516 218.96 26.3608 218.794 26.0286C218.628 25.6964 218.538 25.3313 218.531 24.96C218.46 24.2834 218.63 23.6034 219.011 23.04H219.491C219.554 23.0414 219.617 23.0299 219.676 23.0063C219.735 22.9826 219.789 22.9473 219.833 22.9025C219.878 22.8576 219.914 22.8042 219.937 22.7453C219.961 22.6864 219.972 22.6234 219.971 22.56C219.971 22.08 220.451 22.56 220.451 22.08C220.451 21.6 220.931 22.08 221.411 22.08C221.672 22.0477 221.936 22.0741 222.185 22.1571C222.434 22.2401 222.662 22.3778 222.851 22.56L224.291 24V24.48H223.811Z" fill="black"/>
</svg>
