<svg xmlns="http://www.w3.org/2000/svg" width="678.979" height="157.905" viewBox="0 0 678.979 157.905"><g transform="translate(-141.704 -754.934)"><path d="M401.285,755.074H338.124V865.6h31.583V818.186H377.6a7.9,7.9,0,0,1,7.893,7.9V865.6h31.583V770.866A15.791,15.791,0,0,0,401.285,755.074ZM385.493,802.4H369.707V770.866H377.6a7.893,7.893,0,0,1,7.893,7.893Z" transform="translate(-117.473 -0.083)" fill="#fd0054"/><path d="M746.784,919.971v23.642H731V912.078h7.893A7.9,7.9,0,0,1,746.784,919.971Z" transform="translate(-352.44 -93.983)" fill="#fd0054"/><path d="M715.955,754.935l.07,31.581-110.533-.9-.07,127.217H573.844v-157.9Z" transform="translate(-258.45 0)" fill="#fd0054"/><path d="M1045.643,770.729a15.791,15.791,0,0,0-15.792-15.792H966.69V865.468h24.917v.055h31.235v-.055h22.8Zm-47.37,0h7.893a7.894,7.894,0,0,1,7.894,7.893v71.055l-15.788-.044Z" transform="translate(-493.4 -0.002)" fill="#fd0054"/><path d="M1455.054,818.1V770.726c0-8.72-7.066-15.792-23.855-15.792H1202.4v157.9h94.736l.01-110.533h-47.375v47.37h15.786V881.26h-31.578V786.513H1376.1v15.792H1360.31A15.789,15.789,0,0,1,1376.1,818.1v94.742h31.581V849.762h7.9a7.894,7.894,0,0,1,7.894,7.9v55.178h31.579V849.6a15.792,15.792,0,0,0-14.76-15.75A15.793,15.793,0,0,0,1455.054,818.1Zm-31.746-.027h-15.792V786.535h7.9a7.9,7.9,0,0,1,7.893,7.893Z" transform="translate(-634.371 0)" fill="#fd0054"/><path d="M951.669,951.748v31.579H825.354V888.585a15.791,15.791,0,0,0-15.792-15.792h47.366v78.955Z" transform="translate(-399.426 -70.488)" fill="#fd0054"/><path d="M746.784,1037.71v39.522H731v-47.421h7.893A7.9,7.9,0,0,1,746.784,1037.71Z" transform="translate(-352.44 -164.396)" fill="#fd0054"/><path d="M1532.47,919.971v23.642h-15.786V912.078h7.895A7.9,7.9,0,0,1,1532.47,919.971Z" transform="translate(-822.334 -93.983)" fill="#fd0054"/><path d="M1532.47,1037.71v39.522h-15.786v-47.421h7.895A7.9,7.9,0,0,1,1532.47,1037.71Z" transform="translate(-822.334 -164.396)" fill="#fd0054"/><path d="M299.6,880.929v31.993h-79.38c-43.4-.239-78.519-35.834-78.519-79.723,0-38.568,27.123-70.74,63.159-78.126V786.6c-18.316,6.582-31.429,25.823-31.429,46.576,0,26.2,20.906,47.479,46.789,47.753h.1c.135.006.271.006.407.006s.271,0,.407-.006Z" transform="translate(0 -0.083)" fill="#fd0054"/></g></svg>