<?xml version="1.0" encoding="UTF-8"?>
<!DOCTYPE svg PUBLIC "-//W3C//DTD SVG 1.1//EN" "http://www.w3.org/Graphics/SVG/1.1/DTD/svg11.dtd">
<!-- Creator: CorelDRAW 2020 (64 Bit) -->
<svg xmlns="http://www.w3.org/2000/svg" xml:space="preserve" width="21.0695mm" height="4.3798mm" version="1.1" style="shape-rendering:geometricPrecision; text-rendering:geometricPrecision; image-rendering:optimizeQuality; fill-rule:evenodd; clip-rule:evenodd"
viewBox="0 0 198.28 41.22"
 xmlns:xlink="http://www.w3.org/1999/xlink"
 xmlns:xodm="http://www.corel.com/coreldraw/odm/2003">
 <defs>
  <style type="text/css">
   <![CDATA[
    .fil1 {fill:black}
    .fil0 {fill:black;fill-rule:nonzero}
   ]]>
  </style>
 </defs>
 <g id="Camada_x0020_1">
  <metadata id="CorelCorpID_0Corel-Layer"/>
  <g id="_1678310484336">
   <path class="fil0" d="M196.21 2.07c-0.73,-0.73 -1.7,-1.1 -2.66,-1.1l0 0c-0.96,0 -1.92,0.37 -2.66,1.1 -0.73,0.73 -1.1,1.7 -1.1,2.66l-0 0c0,0.96 0.37,1.92 1.1,2.66 0.73,0.73 1.7,1.1 2.66,1.1l0 -0c0.96,0 1.92,-0.37 2.66,-1.1 0.73,-0.73 1.1,-1.7 1.1,-2.66l0 0c0,-0.96 -0.37,-1.92 -1.1,-2.66zm-4.38 5.06l1.07 0 0 -1.91 0.41 0 1.08 1.91 1.14 0 -1.2 -1.96c0.24,-0.03 0.44,-0.1 0.63,-0.21 0.18,-0.11 0.33,-0.26 0.43,-0.45 0.1,-0.19 0.16,-0.42 0.16,-0.69 0,-0.49 -0.15,-0.86 -0.45,-1.12 -0.3,-0.26 -0.77,-0.39 -1.4,-0.39l-1.88 0 0 4.81zm1.07 -3.95l0.69 0c0.1,-0 0.2,0 0.3,0.02 0.1,0.01 0.2,0.04 0.29,0.08 0.09,0.04 0.16,0.1 0.22,0.18 0.06,0.08 0.08,0.18 0.09,0.31 0,0.17 -0.04,0.29 -0.1,0.38 -0.07,0.09 -0.16,0.14 -0.28,0.17 -0.12,0.03 -0.26,0.04 -0.41,0.04l-0.79 0 0 -1.18zm3.99 -1.8c0.92,0.92 1.38,2.13 1.38,3.35l0 0c0,1.21 -0.46,2.42 -1.39,3.35 -0.92,0.92 -2.14,1.39 -3.35,1.39l0 -0c-1.21,0 -2.42,-0.46 -3.35,-1.38 -0.92,-0.92 -1.38,-2.13 -1.38,-3.35l-0 0c0,-1.21 0.46,-2.42 1.39,-3.35 0.92,-0.92 2.13,-1.39 3.35,-1.39l0 0c1.21,0 2.42,0.46 3.35,1.38z"/>
   <path class="fil1" d="M52.61 15.49l0 7.83 2.91 0 2.65 0 2.65 0 1.36 0c0.85,0 1.54,-0.69 1.54,-1.54l0 -2.15 0 -2.59c0,-0.85 -0.69,-1.54 -1.54,-1.54l-1.36 0 -2.65 0 -2.65 0 -2.91 0zm126.6 25.72c6.67,0 9.6,-2.64 9.6,-7.57l0 -14.46c0,-5.04 -2.65,-7.93 -9.6,-7.93 -6.91,0 -9.52,2.94 -9.52,7.93l0 14.46c0,4.89 2.88,7.57 9.52,7.57zm0.04 -13.05c-1.07,0 -1.93,-0.87 -1.93,-1.93 0,-1.07 0.87,-1.93 1.93,-1.93 1.07,0 1.93,0.87 1.93,1.93 0,1.07 -0.87,1.93 -1.93,1.93zm0 9.67c-3.67,0 -5.26,-2.15 -5.26,-4.51l0 -14.18c0,-2.37 1.6,-4.51 5.26,-4.51 3.71,0 5.26,2.11 5.26,4.51l0 14.18c0,2.37 -1.6,4.51 -5.26,4.51zm-37.07 -26.46l0.01 0 0.01 0 3.31 0 0.01 0 0.01 0c0.05,0 0.1,0.01 0.14,0.03 0.12,0.06 0.21,0.17 0.23,0.31l0.02 0.04 6.49 14.52 0 -14.51c0,-0.21 0.17,-0.38 0.38,-0.38l3.33 0c0.21,0 0.39,0.18 0.39,0.38l0 14.51 6.49 -14.52 0.02 -0.04c0.01,-0.14 0.11,-0.26 0.23,-0.32l0 -0 0.01 -0c0.04,-0.02 0.08,-0.03 0.12,-0.03l0.01 0 0.01 0 3.32 0 0.01 0 0.01 0c0.08,0 0.16,0.03 0.23,0.08l0 0 0 0c0.1,0.06 0.17,0.16 0.15,0.27l0 0.04 0 28.93c0,0.21 -0.17,0.38 -0.39,0.38l-3.33 0c-0.21,0 -0.38,-0.17 -0.38,-0.38l0 -19.79 -6.41 14.33c-0.09,0.19 -0.17,0.38 -0.38,0.38l-0.2 0 -0.01 0 -3.12 0 -0.01 0 -0.2 0c-0.21,0 -0.3,-0.19 -0.38,-0.38l-6.41 -14.33 0 19.79c0,0.21 -0.17,0.38 -0.39,0.38l-3.33 0c-0.21,0 -0.38,-0.17 -0.38,-0.38l0 -28.93 0 -0.04c-0.02,-0.1 0.05,-0.19 0.14,-0.26 0.07,-0.05 0.15,-0.08 0.24,-0.08zm-3.5 7.61l0 -0.67c0,-5.66 -4.14,-7.06 -9.06,-7.06 -4.65,0 -9.11,1.12 -9.11,6.69l0 1.93c0,4.53 2.56,6.2 6.57,7.36l4.56 1.32c0.03,0.01 0.07,0.02 0.1,0.03 1.96,0.83 3.22,1.75 3.27,4.04l0 2.02c0,2.96 -2.84,3.35 -5.17,3.35 -2.66,0 -5.44,-0.76 -5.44,-3.94l0 -1.04 0 -0.32 0 -0.29c0,-0.21 -0.17,-0.38 -0.39,-0.38l-3.35 0c-0.21,0 -0.39,0.17 -0.39,0.38l0 0.29 0 0.32 0 0.95c0,5.94 4.48,7.24 9.57,7.24 4.94,0 9.38,-1.2 9.38,-7.01l0 -1.73c0,-4.21 -2.15,-6.09 -6.02,-7.18l-4.92 -1.38c-2.06,-0.78 -3.57,-1.69 -3.57,-4.12l0 -2.16c0,-2.8 2.54,-3.16 4.76,-3.16 2.53,0 5.08,0.7 5.08,3.71l0 0.81 0 0.31 0 0.31c0,0.21 0.17,0.38 0.39,0.38l3.35 0c0.21,0 0.39,-0.17 0.39,-0.38l0 -0.61 0 0zm-24.68 -7.6l3.33 0c0.21,0 0.39,0.17 0.39,0.38l0 28.93c0,0.21 -0.17,0.38 -0.39,0.38l-3.33 0c-0.21,0 -0.38,-0.17 -0.38,-0.38l0 -28.93c0,-0.21 0.17,-0.38 0.38,-0.38zm-17.95 0l3.33 0c0.21,0 0.39,0.17 0.39,0.38l0 25.21 11.57 0c0.21,0 0.39,0.17 0.39,0.38l0 3.33c0,0.21 -0.18,0.38 -0.39,0.38l-11.95 0 -3.33 0 -0.02 -0 -0.02 -0 -0.02 -0 -0.02 -0 -0 0 -0.02 -0 -0.02 -0 -0.02 -0.01 -0 0 -0.02 -0.01 -0.02 -0.01 -0 0 -0.02 -0.01 -0 0 -0.05 -0.03 0 -0 -0.02 -0.01 -0.01 -0.01 -0 0 -0.01 -0.01 -0 0 -0.01 -0.01 -0 0 -0.01 -0.01 0 -0 -0.01 -0.01 0 -0 -0.01 -0.01 -0.01 -0.02 -0.01 -0.02 -0 0 -0.01 -0.02 -0.01 -0.02 0 0 -0.01 -0.02 -0.01 -0.02 0 0 -0.01 -0.02 -0 -0.02 -0 -0.02 -0 -0.02 -0 -0.02 0 -0.02 0 -3.33 0 -25.6c0,-0.21 0.17,-0.38 0.38,-0.38zm-10.54 0.29l0 0 0 0.02 7.71 29.02c0.05,0.19 -0.17,0.38 -0.38,0.39l-0.01 0 -0.28 0 -0.01 0 -1.35 0 -1.86 0c-0.21,0 -0.33,-0.18 -0.38,-0.39l-6.68 -25.22 -0.54 0 -2.19 8.26 4.51 16.96c0.05,0.2 -0.17,0.38 -0.37,0.39l-0.01 0 -0.28 0 -0.01 0 -1.35 0 -1.86 0c-0.21,0 -0.33,-0.18 -0.39,-0.39l-2.36 -8.92 -2.36 8.92c-0.05,0.2 -0.18,0.39 -0.39,0.39l-1.86 0 -1.35 0 -0.01 0 -0.28 0 -0.01 0c-0.21,-0.01 -0.43,-0.19 -0.38,-0.39l7.72 -29.03 0 -0c0.04,-0.16 0.19,-0.29 0.37,-0.29l2.94 0 0.4 0 2.94 0c0.18,0 0.33,0.12 0.37,0.29zm-43.68 -0.29l3.33 0c0.21,0 0.39,0.17 0.39,0.38l0 28.93c0,0.21 -0.17,0.38 -0.39,0.38l-3.33 0c-0.21,0 -0.38,-0.17 -0.38,-0.38l0 -28.93c0,-0.21 0.17,-0.38 0.38,-0.38zm-31.74 4.11l0 7.83 2.24 0c0.21,0 0.38,0.17 0.38,0.38l0 3.33c0,0.21 -0.18,0.39 -0.38,0.39l-2.24 0 0 13.28c0,0.21 -0.17,0.39 -0.39,0.39l-3.33 0c-0.21,0 -0.38,-0.17 -0.38,-0.39l0 -13.28 -2.24 0c-0.21,0 -0.38,-0.17 -0.38,-0.39l0 -3.33c0,-0.21 0.17,-0.38 0.38,-0.38l2.24 0 0 -7.83 -5.6 0c-0.21,0 -0.39,-0.17 -0.39,-0.39l0 -3.33c0,-0.21 0.17,-0.38 0.39,-0.38l15.3 0c0.21,0 0.38,0.17 0.38,0.38l0 3.33c0,0.21 -0.17,0.39 -0.38,0.39l-5.6 0zm19.36 7.83l1.9 0 1.36 0c0.85,0 1.54,-0.69 1.54,-1.54l0 -4.74c0,-0.85 -0.69,-1.54 -1.54,-1.54l-1.36 0 -5.96 0 4.06 7.83zm2.13 4.1l6.89 13.28c0.1,0.18 -0.17,0.38 -0.38,0.39l-0.01 0 -0.28 0 -0.01 0 -1.28 0 -1.86 0c-0.21,0 -0.29,-0.2 -0.39,-0.39l-6.98 -13.28 -4.14 0 0 13.28c0,0.21 -0.17,0.39 -0.38,0.39l-3.33 0c-0.21,0 -0.38,-0.17 -0.38,-0.39l0 -13.67 0 -3.09 0 -0.24c0,-0.21 0.17,-0.38 0.38,-0.38l5.48 0 0.22 0 -6.09 -11.59c0.02,-0.19 0.18,-0.34 0.38,-0.34l14.06 0c2.68,0 4.87,2.19 4.87,4.88l0 6.28c0,2.68 -2.19,4.88 -4.87,4.88l-1.91 0zm17.32 -16.04l3.33 0 0.06 0.01 5.88 0 4.79 0c2.68,0 4.87,2.19 4.87,4.88l0 3.36 0 2.92c0,0.65 -0.13,1.28 -0.37,1.85 1.11,0.9 1.82,2.27 1.82,3.8l0 2.92 0 5.09c0,2.68 -2.19,4.88 -4.87,4.88l-6.24 0 -5.86 0c-0.03,0.01 -0.06,0.01 -0.09,0.01l-1.67 0 0 -0.01 -1.67 0c-0.21,0 -0.38,-0.17 -0.38,-0.38l0 -28.93c0,-0.21 0.17,-0.38 0.38,-0.38zm16.29 19.73l0 4.32c0,0.85 -0.7,1.54 -1.55,1.54l-1.36 0 -4.11 0 -2.65 0 -2.91 0 0 -9.56 2.91 0 2.65 0 4.11 0 0.68 0 0.68 0c0.85,0 1.55,0.7 1.55,1.54l0 2.15z"/>
  </g>
 </g>
</svg>
